<svg width="32" height="32" viewBox="0 0 32 32" fill="none" xmlns="http://www.w3.org/2000/svg">
<path d="M17 5C17 4.44772 16.5523 4 16 4C15.4477 4 15 4.44772 15 5V18.5858L10.3431 13.9289C9.95262 13.5384 9.31946 13.5384 8.92893 13.9289C8.53841 14.3195 8.53841 14.9526 8.92893 15.3431L15.2929 21.7071C15.6834 22.0976 16.3166 22.0976 16.7071 21.7071L23.0711 15.3431C23.4616 14.9526 23.4616 14.3195 23.0711 13.9289C22.6805 13.5384 22.0474 13.5384 21.6569 13.9289L17 18.5858V5Z" fill="#279884"/>
<path d="M7 21C7 20.4477 6.55228 20 6 20C5.44772 20 5 20.4477 5 21V24C5 26.2091 6.79086 28 9 28H23C25.2091 28 27 26.2091 27 24V21C27 20.4477 26.5523 20 26 20C25.4477 20 25 20.4477 25 21V24C25 25.1046 24.1046 26 23 26H9C7.89543 26 7 25.1046 7 24V21Z" fill="#279884"/>
</svg>
