<svg width="181" height="36" viewBox="0 0 181 36" fill="none" xmlns="http://www.w3.org/2000/svg">
<path d="M135.701 18.628C120.042 16.4516 50.7837 25.8053 36.3173 35.5295C36.3173 35.9925 36.4804 36.0202 36.679 35.9925C38.3426 35.761 66.8914 28.7423 87.5645 26.361C94.2628 25.5894 101.575 25.0062 108.468 23.9068C115.362 22.8073 135.701 18.628 135.701 18.628Z" fill="#FEC900"/>
<path d="M180.945 4.7825C180.945 4.7825 181.09 4.87514 180.909 5.3382C180.812 5.40027 180.439 5.70861 179.498 6.26427C178.124 7.37561 123.349 4.88342 91.6875 9.13522L0.440692 20.156C-0.403017 20.2466 0.223696 19.3689 0.223696 19.3689C11.9379 14.6248 23.9486 9.59834 55.8108 6.12549C77.6551 2.88557 118.309 -0.228181 126.624 0.0131762C139.029 0.0131762 165.446 2.26573 180.945 4.7825Z" fill="#FEC900"/>
</svg>
