<svg width="121" height="196" viewBox="0 0 121 196" fill="none" xmlns="http://www.w3.org/2000/svg">
<path d="M15.7127 89.6695V50.0998C7.1571 52.5677 0.863785 60.5064 0.863785 69.8846C0.904918 79.2629 7.1571 87.2016 15.7127 89.6695Z" fill="#3B4652"/>
<path d="M119.902 69.8846C119.902 60.5064 113.65 52.6089 105.053 50.0998V89.6695C113.65 87.2016 119.902 79.2629 119.902 69.8846Z" fill="#3B4652"/>
<path d="M27.3533 103.161H45.6163V113.814H74.7383V103.161H93.4538C96.7033 103.161 99.2946 100.529 99.2946 97.3202V42.4902C99.2946 39.2407 96.6621 36.6493 93.4538 36.6493H63.2623V21.677C63.2623 21.5536 63.2623 21.4302 63.2211 21.3068C67.828 20.0728 71.2009 15.8361 71.2009 10.8591C71.2009 4.85367 66.3472 0 60.3418 0C54.3365 0 49.4828 4.85367 49.4828 10.8591C49.4828 15.8773 52.8557 20.0728 57.4625 21.3068C57.4625 21.4302 57.4214 21.5536 57.4214 21.677V36.6493H27.2299C23.9804 36.6493 21.3891 39.2818 21.3891 42.4902V97.3202C21.4713 100.529 24.1038 103.161 27.3533 103.161ZM50.0998 91.7262H40.269V75.1908H50.0998V91.7262ZM80.1679 91.7262H70.3371V75.1908H80.1679V91.7262ZM66.8408 55.3648C67.1699 51.9919 69.8847 49.2771 73.2575 48.948C77.7822 48.4956 81.5664 52.2798 81.1139 56.8044C80.7849 60.1773 78.0701 62.8921 74.6972 63.2211C70.1726 63.6736 66.3884 59.8894 66.8408 55.3648ZM55.8584 75.1908H64.5374V91.7262H55.8584V75.1908ZM39.6932 55.3648C40.0222 51.9919 42.737 49.2771 46.1099 48.948C50.6345 48.4956 54.4187 52.2798 53.9663 56.8044C53.6372 60.1773 50.9224 62.8921 47.5495 63.2211C43.0249 63.6736 39.2407 59.8894 39.6932 55.3648Z" fill="#2BD1DE"/>
<path d="M99.2946 119.614H21.4713V179.627H99.2946V119.614Z" fill="#3B4652"/>
<path d="M15.7127 119.614H0V195.381H21.4713V185.386H15.7127V119.614Z" fill="#2BD1DE"/>
<path d="M105.053 119.614V185.386H98.8833V195.381H120.355V119.614H105.053Z" fill="#2BD1DE"/>
</svg>
