<svg width="156" height="203" viewBox="0 0 156 203" fill="none" xmlns="http://www.w3.org/2000/svg">
<path d="M152.522 81.3423C150.659 81.3423 149.135 79.818 149.135 77.9548C149.135 38.7022 117.208 6.775 77.9549 6.775C67.4536 6.775 57.3334 9.01922 47.8908 13.423C46.197 14.2275 44.1645 13.4653 43.4024 11.7716C42.5978 10.0778 43.36 8.04531 45.0538 7.28313C55.3856 2.45594 66.4797 0 77.9549 0C120.934 0 155.91 34.9759 155.91 77.9548C155.91 79.818 154.385 81.3423 152.522 81.3423Z" fill="#3B4652"/>
<path d="M14.778 167.385C13.6347 167.385 12.5337 166.834 11.8986 165.818C4.10734 153.411 0 139.142 0 124.448V77.9549C0 58.392 7.28312 39.6761 20.5791 25.2369C21.8494 23.8395 24.0089 23.7548 25.3639 25.0252C26.7613 26.2955 26.8459 28.455 25.5756 29.81C13.4653 42.9789 6.775 60.0858 6.775 77.9125V124.406C6.775 137.787 10.5436 150.871 17.6573 162.177C18.6736 163.743 18.1655 165.86 16.5987 166.834C16.0059 167.215 15.4131 167.385 14.778 167.385Z" fill="#3B4652"/>
<path d="M77.9549 202.403C61.1444 202.403 45.1385 197.11 31.6308 187.117C30.1488 186.016 29.81 183.899 30.911 182.375C32.0119 180.893 34.1291 180.554 35.6535 181.655C47.9755 190.801 62.5841 195.628 77.9549 195.628C117.208 195.628 149.135 163.701 149.135 124.448C149.135 122.585 150.659 121.061 152.522 121.061C154.385 121.061 155.91 122.585 155.91 124.448C155.91 167.427 120.934 202.403 77.9549 202.403Z" fill="#3B4652"/>
<path d="M18.8006 120.426C16.9375 120.426 15.4131 118.901 15.4131 117.038V77.9549C15.4131 43.487 43.4447 15.4131 77.9549 15.4131C79.818 15.4131 81.3424 16.9375 81.3424 18.8006C81.3424 20.6638 79.818 22.1881 77.9549 22.1881C47.2133 22.1881 22.1881 47.2133 22.1881 77.9549V117.038C22.1881 118.901 20.7061 120.426 18.8006 120.426Z" fill="#3B4652"/>
<path d="M77.9549 186.99C50.135 186.99 25.3639 168.274 17.7844 141.513C17.2763 139.692 18.3349 137.829 20.1133 137.321C21.9341 136.813 23.7972 137.871 24.3053 139.65C31.0803 163.532 53.1414 180.215 77.9549 180.215C79.818 180.215 81.3424 181.739 81.3424 183.602C81.3424 185.466 79.818 186.99 77.9549 186.99Z" fill="#3B4652"/>
<path d="M114.032 174.668C113.015 174.668 111.999 174.202 111.364 173.355C110.221 171.873 110.475 169.756 111.957 168.613C125.761 157.942 133.722 141.852 133.722 124.448V77.9548C133.722 62.7958 127.751 48.653 116.869 38.0247C115.514 36.712 115.514 34.5948 116.826 33.2398C118.139 31.8848 120.256 31.8848 121.611 33.1975C133.806 45.0961 140.539 60.975 140.539 77.9548V124.448C140.539 143.969 131.647 162.007 116.149 173.948C115.471 174.456 114.752 174.668 114.032 174.668Z" fill="#3B4652"/>
<path d="M34.2561 109.882C32.393 109.882 30.8686 108.358 30.8686 106.495V77.9548C30.8686 51.9981 51.9981 30.8686 77.9548 30.8686C103.912 30.8686 125.041 51.9981 125.041 77.9548C125.041 79.818 123.517 81.3423 121.654 81.3423C119.79 81.3423 118.266 79.818 118.266 77.9548C118.266 55.7244 100.185 37.6436 77.9548 37.6436C55.7244 37.6436 37.6436 55.7244 37.6436 77.9548V106.495C37.6436 108.358 36.1192 109.882 34.2561 109.882Z" fill="#3B4652"/>
<path d="M77.9548 171.577C51.9981 171.577 30.8686 150.447 30.8686 124.491C30.8686 122.627 32.393 121.103 34.2561 121.103C36.1192 121.103 37.6436 122.627 37.6436 124.491C37.6436 146.721 55.7244 164.802 77.9548 164.802C100.185 164.802 118.266 146.721 118.266 124.491V101.202C118.266 99.3384 119.79 97.8141 121.654 97.8141C123.517 97.8141 125.041 99.3384 125.041 101.202V124.448C125.041 150.447 103.912 171.577 77.9548 171.577Z" fill="#3B4652"/>
<path d="M97.7294 93.7914V69.0203C97.7294 63.7274 95.6545 58.7731 91.9283 55.0469C88.202 51.3206 83.2478 49.2458 77.9549 49.2458C67.0725 49.2458 58.1803 58.0956 58.1803 69.0203V93.7914C51.0242 99.5502 46.4511 108.4 46.4511 118.308C46.4511 135.712 60.5516 149.812 77.9549 149.812C95.3581 149.812 109.459 135.712 109.459 118.308C109.459 108.4 104.885 99.5502 97.7294 93.7914ZM77.9549 56.0208C81.427 56.0208 84.6875 57.3758 87.1435 59.8317C89.5994 62.2877 90.9544 65.5481 90.9544 69.0203V89.5994C86.9741 87.8209 82.5703 86.8047 77.9549 86.8047C73.3394 86.8047 68.9356 87.8209 64.9553 89.5994V69.0203C64.9553 61.8642 70.7988 56.0208 77.9549 56.0208ZM85.8731 137.321H69.9942C68.6816 137.321 67.75 135.966 68.2581 134.738L73.5935 121.484C69.1474 119.663 66.0563 115.175 66.395 110.009C66.7338 104.25 71.4339 99.5502 77.1927 99.2114C83.9253 98.788 89.5147 104.123 89.5147 110.771C89.5147 115.641 86.5083 119.79 82.2739 121.484L87.6092 134.738C88.1174 136.008 87.2281 137.321 85.8731 137.321Z" fill="#2BD1DE"/>
</svg>
