<svg width="174" height="131" viewBox="0 0 174 131" fill="none" xmlns="http://www.w3.org/2000/svg">
<path d="M162.883 0.278748H36.1806C30.1331 0.278748 25.2288 5.18312 25.2288 11.2675V30.0737H173.835V11.2675C173.835 5.18312 168.931 0.278748 162.883 0.278748ZM44.7356 20.8919C41.5644 20.8919 39.02 18.3475 39.02 15.1762C39.02 12.005 41.5644 9.46062 44.7356 9.46062C47.9069 9.46062 50.4513 12.005 50.4513 15.1762C50.4513 18.3475 47.87 20.8919 44.7356 20.8919ZM67.6719 20.8919C64.5006 20.8919 61.9563 18.3475 61.9563 15.1762C61.9563 12.005 64.5006 9.46062 67.6719 9.46062C70.8431 9.46062 73.3875 12.005 73.3875 15.1762C73.3875 18.3475 70.8063 20.8919 67.6719 20.8919Z" fill="#2BD1DE"/>
<path d="M25.2288 41.2837H37.1394V46.4462C37.1394 49.0644 39.2413 51.1662 41.8594 51.1662C44.4775 51.1662 46.5794 49.0644 46.5794 46.4462V41.2837H67.045L89.5019 72.2956L71.3594 90.8437L67.7088 87.2669V113.448H25.2288V119.569C25.2288 125.617 30.1331 130.558 36.1806 130.558H162.846C168.894 130.558 173.798 125.654 173.798 119.569V35.1994H25.1919V41.2837H25.2288ZM97.8725 46.0406H150.235C151.673 46.0406 152.816 47.1837 152.816 48.6219C152.816 50.06 151.673 51.2031 150.235 51.2031H97.8725C96.4344 51.2031 95.2913 50.06 95.2913 48.6219C95.2913 47.1837 96.4713 46.0406 97.8725 46.0406ZM97.8725 60.4219H150.235C151.673 60.4219 152.816 61.565 152.816 63.0031C152.816 64.4412 151.673 65.5844 150.235 65.5844H97.8725C96.4344 65.5844 95.2913 64.4412 95.2913 63.0031C95.2913 61.565 96.4713 60.4219 97.8725 60.4219ZM97.8725 74.7662H150.235C151.673 74.7662 152.816 75.9094 152.816 77.3475C152.816 78.7856 151.673 79.9287 150.235 79.9287H97.8725C96.4344 79.9287 95.2913 78.7856 95.2913 77.3475C95.2913 75.9094 96.4713 74.7662 97.8725 74.7662ZM97.8725 89.1475H150.235C151.673 89.1475 152.816 90.2906 152.816 91.7287C152.816 93.1669 151.673 94.31 150.235 94.31H97.8725C96.4344 94.31 95.2913 93.1669 95.2913 91.7287C95.2913 90.2906 96.4713 89.1475 97.8725 89.1475ZM97.8725 103.529H150.235C151.673 103.529 152.816 104.672 152.816 106.11C152.816 107.548 151.673 108.691 150.235 108.691H97.8725C96.4344 108.691 95.2913 107.548 95.2913 106.11C95.2913 104.672 96.4713 103.529 97.8725 103.529Z" fill="#3B4652"/>
<path d="M62.5463 108.249V74.9506L71.2856 83.5056L82.7538 71.7794L64.39 46.4463H51.705C51.705 51.9038 47.28 56.3288 41.8225 56.3288C36.365 56.3288 31.94 51.9038 31.94 46.4463H19.2919L0.928131 71.7794L12.3963 83.5056L21.1356 74.9506V108.249H62.5463ZM36.5863 72.2956H47.1694C48.6075 72.2956 49.7506 73.4388 49.7506 74.8769C49.7506 76.315 48.6075 77.4581 47.1694 77.4581H36.5863C35.1481 77.4581 34.005 76.315 34.005 74.8769C34.005 73.4388 35.1481 72.2956 36.5863 72.2956Z" fill="#2BD1DE"/>
</svg>
