<svg width="107" height="184" viewBox="0 0 107 184" fill="none" xmlns="http://www.w3.org/2000/svg">
<path d="M98.1094 0H8.27532C3.7111 0 0.0426636 3.71109 0.0426636 8.23266V147.292H106.385V8.23266C106.385 3.71109 102.674 0 98.1094 0ZM33.0159 14.1619C34.0824 13.0955 35.5327 12.4556 37.1536 12.4556H69.2738C72.473 12.4556 75.1177 15.0577 75.1177 18.2995C75.1177 19.9205 74.4778 21.3708 73.4114 22.4372C72.345 23.5036 70.8947 24.1434 69.2738 24.1434H37.1536C33.9544 24.1434 31.3097 21.5414 31.3097 18.2995C31.3097 16.6786 31.9495 15.1856 33.0159 14.1619ZM67.7381 123.703L64.4109 125.111C63.9844 125.964 63.5152 126.817 62.9606 127.628C59.8894 132.106 55.0692 135.69 49.3533 137.694C46.1967 138.803 42.9975 139.358 39.7983 139.358C30.9258 139.358 23.7169 134.964 21.3281 128.139C19.5792 123.106 20.6456 117.518 24.2288 112.698L23.7169 112.015C18.8114 105.532 16.2094 97.8108 16.2094 89.6634C16.2094 81.6014 18.7688 73.9233 23.5889 67.4822C28.2811 61.2544 34.9355 56.5622 42.315 54.3014L43.552 53.9175V44.1066L61.4677 42.1444L85.867 39.4997V62.2781L78.9141 63.0459C86.123 69.9989 90.218 79.4686 90.218 89.6634C90.218 104.508 81.3881 117.859 67.7381 123.703Z" fill="#1B3954"/>
<path d="M0 175.189C0 179.753 3.7111 183.422 8.23266 183.422H98.1094C102.674 183.422 106.342 179.711 106.342 175.189V151.6H0V175.189ZM53.1923 160.515C57.0314 160.515 60.1453 163.629 60.1453 167.468C60.1453 171.308 57.0314 174.421 53.1923 174.421C49.3533 174.421 46.2394 171.308 46.2394 167.468C46.2394 163.629 49.3533 160.515 53.1923 160.515Z" fill="#2BD1DE"/>
<path d="M37.3669 103.271C39.4144 102.546 41.5045 102.076 43.552 101.82V58.3964C30.158 62.4914 20.4323 74.947 20.4323 89.7061C20.4323 97.1283 22.9064 103.996 27.0867 109.456C29.902 106.769 33.4425 104.636 37.3669 103.271Z" fill="#2BD1DE"/>
<path d="M73.1128 63.6858L66.2451 64.4536V117.689C66.2451 118.371 66.2025 119.096 66.0745 119.779C77.7623 114.788 85.9523 103.185 85.9523 89.6634C85.9523 79.0847 80.9189 69.6577 73.1128 63.6858Z" fill="#2BD1DE"/>
<path d="M81.6014 58.4817V44.2772L61.9369 46.41L47.8176 47.9456V105.915C44.9597 105.787 41.8458 106.257 38.7745 107.323C35.2341 108.56 32.2055 110.437 29.8594 112.698C25.6364 116.793 23.7169 122.082 25.3378 126.774C27.8545 134.069 37.9641 137.14 47.903 133.685C52.9364 131.936 56.9887 128.865 59.3775 125.281C60.2306 124.044 60.8705 122.765 61.297 121.442C61.6809 120.205 61.8942 118.968 61.8942 117.731V60.6145L67.0556 60.06L81.6014 58.4817Z" fill="#1B3954"/>
</svg>
