<svg width="50" height="50" viewBox="0 0 50 50" fill="none" xmlns="http://www.w3.org/2000/svg">
<path fill-rule="evenodd" clip-rule="evenodd" d="M0.123535 21.6814V17.949C0.210645 17.9002 0.187598 17.8104 0.204395 17.7354C1.37939 12.6236 4.58369 9.55098 9.63604 8.32441C10.0786 8.21738 10.5423 8.22793 10.9728 8.06934H13.461C13.5177 8.17637 13.6231 8.1334 13.7071 8.14277C16.2157 8.41113 18.4739 9.29785 20.4712 10.8436C22.1759 12.16 23.5337 13.7916 24.7438 15.5537C24.8935 15.7721 24.9649 15.7783 25.1161 15.5553C25.8087 14.5357 26.5642 13.5643 27.4052 12.6607C29.495 10.4193 31.9778 8.87363 35.0267 8.30762C35.4845 8.22168 35.9575 8.22676 36.4017 8.06934H38.8196C38.8704 8.15918 38.9603 8.13066 39.0368 8.13965C39.7567 8.22051 40.4681 8.35332 41.1669 8.55449C46.4204 10.0639 50.1251 14.8764 49.8138 20.3252C49.5528 24.874 47.2505 28.1502 43.2591 30.2541C41.2446 31.3162 39.0599 31.617 36.8044 31.5725C33.8259 31.5146 31.2364 30.4904 29.004 28.5361C27.4552 27.1811 26.2376 25.5518 25.1192 23.8424C24.9528 23.5877 24.8888 23.6197 24.7392 23.8502C24.0313 24.9396 23.2712 25.9955 22.411 26.9752C20.9001 28.6963 19.1544 30.1002 16.9696 30.8658C14.2685 31.8119 11.5146 31.8486 8.78447 31.0768C4.84932 29.9639 2.13604 27.4611 0.673145 23.6252C0.431738 22.9936 0.331348 22.3225 0.123535 21.6814V21.6814ZM12.5415 27.4174C14.7813 27.5104 16.6899 26.758 18.3091 25.2521C19.9981 23.6803 21.1931 21.735 22.406 19.8045C22.4794 19.6885 22.4567 19.5971 22.3864 19.4889C21.3532 17.8791 20.2942 16.2846 18.8966 14.9568C16.2079 12.401 13.0403 11.542 9.50596 12.6709C6.554 13.6154 4.6876 15.7166 4.25166 18.8361C3.84424 21.7443 4.97627 24.0928 7.30322 25.8443C8.85205 27.0115 10.636 27.4709 12.5415 27.4178V27.4174ZM37.2864 27.4174C38.1638 27.44 39.0274 27.3822 39.8606 27.1318C42.9153 26.2209 44.9798 24.283 45.5552 21.1045C46.129 17.9385 44.9036 15.4041 42.2778 13.5943C39.3509 11.5756 35.0845 11.774 32.1001 13.9939C30.1181 15.4682 28.7704 17.4744 27.4614 19.5146C27.3849 19.6318 27.4048 19.7221 27.472 19.8291C28.522 21.5088 29.5731 23.1873 30.9341 24.6432C32.6556 26.485 34.7247 27.5314 37.2864 27.4174V27.4174ZM49.8751 38.7482C49.7591 39.1162 49.6661 39.4916 49.5255 39.8498C48.6528 42.0686 45.5325 42.6639 44.0353 40.8982C43.5259 40.2971 43.3017 39.5756 43.2161 38.8096C43.097 37.7381 43.1001 36.6748 43.5028 35.6463C44.072 34.2029 45.3036 33.4537 46.9224 33.576C48.3978 33.6869 49.3794 34.5674 49.7302 36.0889C49.7759 36.2842 49.7528 36.4979 49.8747 36.6748L49.8751 38.7482ZM44.9462 37.7287C44.9478 38.3182 44.9798 38.9041 45.1892 39.4623C45.3478 39.8943 45.6134 40.2209 46.0849 40.3428C46.9271 40.5611 47.6181 40.2146 47.8747 39.3771C48.204 38.2951 48.1888 37.1936 47.8774 36.11C47.6763 35.4037 47.2505 35.0939 46.5821 35.0818C45.8681 35.0678 45.4259 35.3732 45.1692 36.0611C44.9692 36.6002 44.9493 37.1646 44.9466 37.7291L44.9462 37.7287ZM38.0114 36.5021V41.2982C38.0114 41.7709 38.0114 41.7709 37.5216 41.7709C37.2802 41.7709 37.0376 41.7545 36.7966 41.7756C36.5267 41.8002 36.4427 41.7053 36.4458 41.4311C36.4579 40.0146 36.4517 38.599 36.4517 37.1826C36.4517 36.124 36.4595 35.065 36.4474 34.0061C36.4442 33.7646 36.513 33.6869 36.7556 33.6963C37.2271 33.7146 37.7001 33.7158 38.1716 33.6947C38.4064 33.6854 38.5165 33.7693 38.611 33.9756C39.3478 35.5732 40.0954 37.1646 40.8415 38.7576C40.8603 38.7955 40.886 38.8322 40.9626 38.9588V38.5471C40.9626 37.0393 40.9685 35.5314 40.9563 34.0244C40.9548 33.7709 41.0126 33.6764 41.2782 33.6963C41.6106 33.7205 41.945 33.71 42.279 33.6994C42.4665 33.6916 42.5415 33.7451 42.5415 33.9478C42.5362 36.4692 42.5362 38.9906 42.5415 41.5119C42.5415 41.7025 42.4853 41.7775 42.2868 41.774C41.7686 41.7631 41.2503 41.7636 40.7321 41.7756C40.5196 41.7818 40.4649 41.6521 40.3946 41.501C39.6634 39.9141 38.929 38.3287 38.1915 36.7447C38.1548 36.667 38.1501 36.5635 38.0114 36.5025V36.5021ZM12.4271 37.9475C13.0188 38.4232 13.254 39.0826 13.5653 39.6943C13.8661 40.2881 14.1513 40.8908 14.4532 41.4842C14.5556 41.6873 14.5755 41.7865 14.2868 41.7756C13.8043 41.7603 13.3213 41.7603 12.8388 41.7756C12.6435 41.7818 12.5567 41.701 12.4817 41.5314C12.1446 40.7639 11.7923 40.0025 11.4474 39.2385C11.2579 38.8186 10.9575 38.5623 10.486 38.4963C10.2067 38.4584 10.1333 38.5471 10.1384 38.8232C10.1548 39.6975 10.1349 40.5717 10.1501 41.4463C10.1548 41.7025 10.0876 41.7924 9.8251 41.7771C9.45752 41.7545 9.08838 41.7635 8.72041 41.774C8.5251 41.7787 8.429 41.7346 8.429 41.5103C8.43682 38.9893 8.43369 36.4701 8.43525 33.9494C8.43525 33.8396 8.40635 33.6978 8.5876 33.7037C9.81611 33.7436 11.0536 33.574 12.2696 33.8471C13.9403 34.2225 14.1513 35.6342 13.8505 36.6779C13.6536 37.3627 13.1239 37.7365 12.4267 37.9475H12.4271ZM10.1458 36.1072V36.9693C10.1458 37.0639 10.1427 37.1615 10.2786 37.1615C10.7485 37.1662 11.2243 37.1994 11.661 36.9678C12.056 36.7568 12.2196 36.4107 12.161 35.9271C12.1142 35.5318 11.8958 35.2861 11.4563 35.1869C11.2094 35.1313 10.9572 35.1021 10.704 35.0998C10.0126 35.092 10.1626 35.0357 10.1454 35.6248C10.1411 35.785 10.1454 35.9467 10.1454 36.1072H10.1458ZM15.2298 37.7275C15.2298 36.5068 15.2376 35.2877 15.2239 34.067C15.2208 33.7924 15.2771 33.6826 15.5794 33.6959C16.556 33.7357 17.5372 33.635 18.5106 33.7545C20.3599 33.9814 21.3134 34.9475 21.5212 36.8209C21.6231 37.7307 21.5899 38.6385 21.2634 39.5127C20.7489 40.8846 19.6747 41.5166 18.2938 41.7072C17.3571 41.8353 16.4095 41.7529 15.4649 41.774C15.2114 41.7803 15.2298 41.6232 15.2298 41.4568V37.7275V37.7275ZM16.9282 37.7213V39.583C16.9282 40.3799 16.9282 40.3799 17.7399 40.3459C18.747 40.3029 19.3896 39.7861 19.6274 38.8018C19.8181 38.0174 19.7985 37.2271 19.6032 36.4475C19.4079 35.6721 18.895 35.2389 18.0938 35.1486C17.8103 35.1166 17.5204 35.1275 17.2349 35.1018C16.9923 35.0783 16.9188 35.1721 16.9235 35.4127C16.9372 36.1818 16.9282 36.9525 16.9282 37.7213V37.7213ZM6.83447 41.774C5.90986 41.774 5.90986 41.774 5.66104 40.8998C5.4626 40.2041 5.4626 40.2041 4.73799 40.2041C4.16104 40.2041 3.58564 40.2146 3.01064 40.1994C2.79697 40.1936 2.70713 40.265 2.65674 40.4697C2.56963 40.8268 2.43682 41.1729 2.3501 41.5299C2.30127 41.7283 2.20049 41.7834 2.00986 41.7771C1.63043 41.7634 1.25062 41.7634 0.871191 41.7771C0.613379 41.7881 0.58916 41.7057 0.659473 41.4764C1.23447 39.6209 1.79893 37.7627 2.3665 35.9041C2.56182 35.2678 2.7665 34.633 2.94971 33.9924C3.00752 33.7861 3.08682 33.69 3.32041 33.6979C3.90791 33.7158 4.49541 33.7096 5.08135 33.7006C5.26104 33.6979 5.34072 33.7557 5.39385 33.9326C6.1609 36.4503 6.93304 38.9665 7.71025 41.4811C7.779 41.7037 7.74541 41.7986 7.49072 41.7771C7.27393 41.7588 7.0544 41.774 6.83447 41.774V41.774ZM4.15205 35.6568L4.08018 35.6615C3.77666 36.7053 3.47158 37.7475 3.16768 38.7912C3.22119 38.8064 3.24268 38.8186 3.26533 38.8186C3.6333 38.8217 4.00088 38.8248 4.36885 38.8248C5.07354 38.8264 5.0751 38.8248 4.88135 38.1607C4.63877 37.3264 4.39463 36.49 4.15205 35.6568ZM22.2946 36.7053C22.2946 35.7959 22.2993 34.8865 22.2903 33.9756C22.2888 33.774 22.3372 33.6869 22.5571 33.6979C22.9372 33.7146 23.3188 33.7174 23.697 33.6963C23.9517 33.6826 24.0005 33.7861 23.9989 34.015C23.9915 35.5471 23.9946 37.0791 23.9978 38.6111C23.9978 38.8752 24.0056 39.1404 24.0329 39.4029C24.106 40.1248 24.5329 40.4893 25.3173 40.5123C26.1032 40.5365 26.5474 40.1963 26.654 39.4686C26.6914 39.2068 26.7098 38.9427 26.7091 38.6783C26.7153 37.1463 26.7181 35.6143 26.7044 34.0838C26.7028 33.7955 26.7532 33.6658 27.0767 33.6947C27.431 33.7268 27.7911 33.71 28.1466 33.6994C28.3341 33.6932 28.4134 33.7436 28.4122 33.9463C28.3997 35.6963 28.4302 37.4482 28.3798 39.1971C28.3372 40.7166 27.347 41.701 25.8239 41.8705C25.1739 41.9436 24.5349 41.9068 23.9138 41.701C22.9173 41.3682 22.3481 40.5674 22.3099 39.3982C22.2825 38.5014 22.3056 37.6025 22.3056 36.7053H22.2946ZM32.4099 33.7021C33.2048 33.7021 33.9981 33.71 34.7931 33.6963C35.0177 33.6932 35.0997 33.7588 35.0845 33.9877C35.0677 34.2631 35.0677 34.5393 35.0845 34.8146C35.0985 35.0346 35.0099 35.0908 34.8056 35.0846C34.3903 35.0709 33.9767 35.0877 33.5618 35.0768C33.3681 35.0709 33.2751 35.1092 33.2751 35.3365C33.2841 36.9248 33.2829 38.5135 33.2767 40.1021C33.2751 40.3139 33.3419 40.3857 33.5528 40.3779C33.9661 40.3674 34.381 40.3873 34.795 40.3701C35.0294 40.3627 35.0954 40.4529 35.0845 40.6725C35.0692 40.9592 35.0728 41.2479 35.0829 41.5346C35.0907 41.7193 35.0146 41.7729 34.8407 41.7729C33.229 41.7682 31.6181 41.7682 30.0048 41.7729C29.8126 41.774 29.7353 41.7131 29.7427 41.5162C29.7536 41.2285 29.7531 40.9406 29.7411 40.6529C29.7317 40.4451 29.8005 40.3658 30.0157 40.3717C30.4415 40.3842 30.8673 40.3689 31.2931 40.3764C31.4884 40.3811 31.5509 40.308 31.5493 40.1139C31.5446 38.515 31.5446 36.9143 31.5493 35.3135C31.5493 35.1338 31.4853 35.074 31.3079 35.0771C30.8821 35.0861 30.4552 35.0678 30.0306 35.085C29.7974 35.0939 29.7228 35.0084 29.7427 34.7873C29.7763 34.4361 29.5962 33.9893 29.8204 33.7588C30.0157 33.5588 30.4552 33.7084 30.7876 33.7021C31.3267 33.6963 31.8696 33.7021 32.4099 33.7021V33.7021ZM48.7704 9.56152C48.7185 9.63926 48.7001 9.66504 48.6833 9.69121C48.5888 9.83301 48.6618 10.1197 48.4239 10.1154C48.213 10.1107 48.2665 9.84824 48.1919 9.70488C48.1724 9.6666 48.1489 9.63145 48.0837 9.5248C48.0837 9.72168 48.0868 9.83301 48.0837 9.9459C48.0806 10.0221 48.0974 10.1182 47.9767 10.1244C47.8548 10.1307 47.8622 10.033 47.8606 9.95645C47.8579 9.69082 47.8579 9.42715 47.8595 9.16309C47.8595 9.07324 47.8454 8.96934 47.986 8.96621C48.0915 8.96465 48.1829 8.96035 48.2271 9.09746C48.2833 9.26543 48.3032 9.45293 48.4329 9.61465C48.5567 9.45762 48.5778 9.27598 48.6251 9.10957C48.6649 8.97402 48.7489 8.96504 48.8587 8.96504C48.9978 8.96621 48.9915 9.06387 48.9931 9.15566C48.9946 9.42129 48.9946 9.68496 48.9915 9.95059C48.9899 10.0252 49.0005 10.1244 48.8817 10.126C48.7626 10.126 48.7716 10.0314 48.7704 9.95332C48.7673 9.84043 48.7704 9.7291 48.7704 9.56152V9.56152ZM47.3204 8.96309C47.3544 8.96309 47.3907 8.95723 47.4228 8.96309C47.5497 8.9877 47.7462 8.89004 47.7876 9.04121C47.8438 9.25332 47.6212 9.14668 47.5267 9.19199C47.4321 9.2377 47.4505 9.32168 47.4485 9.39824C47.4442 9.58105 47.4458 9.76426 47.4458 9.94746C47.4458 10.0482 47.4263 10.1322 47.2962 10.1271C47.1771 10.1232 47.1817 10.0357 47.1817 9.95645C47.1782 9.78511 47.1776 9.61373 47.1802 9.44238C47.1849 9.2959 47.1864 9.1584 46.9759 9.17832C46.9024 9.18457 46.8384 9.16309 46.8384 9.07012C46.8384 8.94199 46.9376 8.96777 47.011 8.96465C47.1146 8.95996 47.2169 8.96309 47.3208 8.96309H47.3204Z" fill="#00979C"/>
<path fill-rule="evenodd" clip-rule="evenodd" d="M12.4913 18.5715C13.7562 18.5715 15.0226 18.5805 16.2874 18.5637C16.5835 18.5594 16.6597 18.6508 16.6417 18.9317C16.6166 19.2872 16.6166 19.6441 16.6417 19.9997C16.6628 20.2958 16.5835 20.3919 16.2691 20.3887C14.5894 20.3719 12.9093 20.3797 11.2308 20.3797C10.3792 20.3797 9.52768 20.3676 8.67807 20.3876C8.38041 20.395 8.30424 20.2958 8.32104 20.0165C8.34369 19.6504 8.34057 19.2794 8.32104 18.9118C8.30736 18.6477 8.38354 18.561 8.66088 18.5641C9.93705 18.5805 11.2156 18.5715 12.4913 18.5715V18.5715ZM37.116 16.0661C37.4148 16.0661 37.7156 16.0751 38.0144 16.0629C38.2097 16.0551 38.2722 16.1239 38.2695 16.3208C38.2585 16.8731 38.2773 17.4254 38.2601 17.9778C38.2511 18.2282 38.3121 18.3196 38.5804 18.309C39.1206 18.2876 39.6624 18.3106 40.2027 18.3001C40.4117 18.2954 40.5199 18.3364 40.514 18.5794C40.5013 19.1779 40.5008 19.7765 40.5124 20.3751C40.5171 20.5919 40.4343 20.6485 40.2285 20.6454C39.6761 20.6329 39.1238 20.6512 38.5714 20.636C38.3367 20.6282 38.2511 20.6879 38.2589 20.9383C38.2769 21.4907 38.2558 22.043 38.2695 22.5954C38.2753 22.827 38.2187 22.9219 37.9671 22.9141C37.3804 22.8991 36.7934 22.8986 36.2066 22.9126C35.9788 22.9188 35.9089 22.8454 35.9148 22.618C35.9304 22.043 35.912 21.4676 35.9242 20.8922C35.9273 20.6969 35.8675 20.6329 35.6706 20.6376C35.1183 20.6481 34.5644 20.6254 34.0136 20.6481C33.73 20.659 33.6644 20.5567 33.6703 20.2942C33.6871 19.754 33.6964 19.2122 33.6687 18.6723C33.6519 18.3532 33.771 18.2848 34.064 18.2969C34.5937 18.3196 35.123 18.2938 35.6527 18.3075C35.8632 18.3137 35.93 18.2497 35.9242 18.0344C35.9105 17.4837 35.93 16.9297 35.9148 16.3774C35.9089 16.1438 35.9667 16.0446 36.2171 16.0614C36.516 16.0813 36.8152 16.0661 37.1156 16.0661H37.116Z" fill="#00979C"/>
</svg>
