<svg width="50" height="50" viewBox="0 0 50 50" fill="none" xmlns="http://www.w3.org/2000/svg">
<path d="M16.8179 21.7039C16.8179 22.1663 16.8678 22.5413 16.9551 22.8163C17.0548 23.0913 17.1796 23.3913 17.3542 23.7163C17.4165 23.8163 17.4415 23.9163 17.4415 24.0038C17.4415 24.1288 17.3666 24.2538 17.2045 24.3788L16.4188 24.9037C16.3065 24.9787 16.1943 25.0162 16.0945 25.0162C15.9698 25.0162 15.845 24.9537 15.7203 24.8412C15.5457 24.6537 15.396 24.4537 15.2713 24.2538C15.1466 24.0413 15.0219 23.8038 14.8847 23.5163C13.9119 24.6662 12.6896 25.2412 11.2179 25.2412C10.1702 25.2412 9.33461 24.9412 8.72347 24.3413C8.11234 23.7413 7.80054 22.9413 7.80054 21.9413C7.80054 20.8789 8.1747 20.0164 8.9355 19.3664C9.6963 18.7165 10.7065 18.3915 11.9912 18.3915C12.4152 18.3915 12.8517 18.429 13.3132 18.4915C13.7747 18.554 14.2486 18.654 14.7475 18.7665V17.854C14.7475 16.904 14.5479 16.2416 14.1613 15.8541C13.7622 15.4666 13.0887 15.2791 12.1284 15.2791C11.6918 15.2791 11.2428 15.3291 10.7814 15.4416C10.3199 15.5541 9.87091 15.6916 9.43438 15.8666C9.23483 15.9541 9.08516 16.0041 8.99786 16.0291C8.91055 16.0541 8.84819 16.0666 8.79831 16.0666C8.6237 16.0666 8.53639 15.9416 8.53639 15.6791V15.0666C8.53639 14.8666 8.56134 14.7166 8.6237 14.6291C8.68606 14.5416 8.79831 14.4541 8.97291 14.3666C9.40944 14.1416 9.93327 13.9542 10.5444 13.8042C11.1555 13.6417 11.8041 13.5667 12.49 13.5667C13.9742 13.5667 15.0593 13.9042 15.7577 14.5791C16.4437 15.2541 16.7929 16.2791 16.7929 17.654V21.7039H16.8179ZM11.7542 23.6038C12.1658 23.6038 12.5898 23.5288 13.0388 23.3788C13.4878 23.2288 13.8869 22.9538 14.2237 22.5788C14.4232 22.3413 14.5729 22.0788 14.6477 21.7789C14.7226 21.4789 14.7724 21.1164 14.7724 20.6914V20.1664C14.4108 20.0789 14.0241 20.0039 13.625 19.9539C13.2259 19.9039 12.8393 19.8789 12.4526 19.8789C11.617 19.8789 11.0059 20.0414 10.5943 20.3789C10.1827 20.7164 9.98316 21.1914 9.98316 21.8164C9.98316 22.4038 10.1328 22.8413 10.4446 23.1413C10.744 23.4538 11.1805 23.6038 11.7542 23.6038ZM21.7693 24.9537C21.5448 24.9537 21.3951 24.9162 21.2954 24.8287C21.1956 24.7537 21.1083 24.5787 21.0334 24.3413L18.1025 14.6791C18.0277 14.4291 17.9902 14.2666 17.9902 14.1791C17.9902 13.9792 18.09 13.8667 18.2896 13.8667H19.5118C19.7488 13.8667 19.911 13.9042 19.9983 13.9917C20.098 14.0667 20.1729 14.2416 20.2477 14.4791L22.343 22.7538L24.2887 14.4791C24.351 14.2291 24.4259 14.0667 24.5256 13.9917C24.6254 13.9167 24.8 13.8667 25.0245 13.8667H26.0223C26.2593 13.8667 26.4214 13.9042 26.5212 13.9917C26.6209 14.0667 26.7082 14.2416 26.7581 14.4791L28.7287 22.8538L30.8864 14.4791C30.9612 14.2291 31.0485 14.0667 31.1358 13.9917C31.2356 13.9167 31.3978 13.8667 31.6223 13.8667H32.7822C32.9817 13.8667 33.094 13.9667 33.094 14.1791C33.094 14.2416 33.0815 14.3041 33.069 14.3791C33.0565 14.4541 33.0316 14.5541 32.9817 14.6916L29.9759 24.3538C29.9011 24.6037 29.8138 24.7662 29.714 24.8412C29.6142 24.9162 29.4521 24.9662 29.2401 24.9662H28.1675C27.9305 24.9662 27.7684 24.9287 27.6686 24.8412C27.5688 24.7537 27.4815 24.5912 27.4316 24.3413L25.4985 16.2791L23.5778 24.3288C23.5154 24.5787 23.4406 24.7412 23.3408 24.8287C23.241 24.9162 23.0664 24.9537 22.8419 24.9537H21.7693ZM37.7959 25.2912C37.1474 25.2912 36.4988 25.2162 35.8752 25.0662C35.2516 24.9162 34.7652 24.7537 34.441 24.5662C34.2414 24.4537 34.1042 24.3288 34.0543 24.2163C34.0044 24.1038 33.9795 23.9788 33.9795 23.8663V23.2288C33.9795 22.9663 34.0793 22.8413 34.2663 22.8413C34.3412 22.8413 34.416 22.8538 34.4908 22.8788C34.5657 22.9038 34.6779 22.9538 34.8026 23.0038C35.2267 23.1913 35.6882 23.3413 36.1746 23.4413C36.6735 23.5413 37.1599 23.5913 37.6588 23.5913C38.4445 23.5913 39.0556 23.4538 39.4797 23.1788C39.9037 22.9038 40.1282 22.5038 40.1282 21.9913C40.1282 21.6414 40.016 21.3539 39.7915 21.1164C39.567 20.8789 39.1429 20.6664 38.5318 20.4664L36.7233 19.9039C35.8129 19.6164 35.1394 19.1915 34.7278 18.629C34.3162 18.079 34.1042 17.4665 34.1042 16.8165C34.1042 16.2916 34.2165 15.8291 34.441 15.4291C34.6655 15.0291 34.9648 14.6791 35.3389 14.4041C35.7131 14.1166 36.1372 13.9042 36.636 13.7542C37.1349 13.6042 37.6588 13.5417 38.2075 13.5417C38.4819 13.5417 38.7688 13.5542 39.0432 13.5917C39.33 13.6292 39.5919 13.6792 39.8538 13.7292C40.1033 13.7917 40.3403 13.8542 40.5648 13.9292C40.7893 14.0042 40.9639 14.0792 41.0886 14.1541C41.2632 14.2541 41.3879 14.3541 41.4627 14.4666C41.5376 14.5666 41.575 14.7041 41.575 14.8791V15.4666C41.575 15.7291 41.4752 15.8666 41.2881 15.8666C41.1884 15.8666 41.0262 15.8166 40.8142 15.7166C40.1033 15.3916 39.3051 15.2291 38.4196 15.2291C37.7086 15.2291 37.1474 15.3416 36.7608 15.5791C36.3741 15.8166 36.1746 16.1791 36.1746 16.6915C36.1746 17.0415 36.2993 17.3415 36.5487 17.579C36.7982 17.8165 37.2596 18.054 37.9207 18.2665L39.6917 18.829C40.5897 19.1165 41.2382 19.5164 41.6249 20.0289C42.0115 20.5414 42.1986 21.1289 42.1986 21.7789C42.1986 22.3163 42.0864 22.8038 41.8743 23.2288C41.6498 23.6538 41.3505 24.0288 40.9639 24.3288C40.5772 24.6412 40.1158 24.8662 39.5795 25.0287C39.0182 25.2037 38.432 25.2912 37.7959 25.2912Z" fill="#252F3E"/>
<path fill-rule="evenodd" clip-rule="evenodd" d="M40.1532 31.366C36.0499 34.4034 30.0882 36.0158 24.9622 36.0158C17.7782 36.0158 11.3052 33.3534 6.41613 28.9286C6.0295 28.5786 6.37871 28.1036 6.84018 28.3786C12.1284 31.4535 18.6513 33.3159 25.3987 33.3159C29.951 33.3159 34.9523 32.3659 39.5545 30.416C40.2405 30.1035 40.8267 30.866 40.1532 31.366Z" fill="#FF9900"/>
<path fill-rule="evenodd" clip-rule="evenodd" d="M41.8619 29.4161C41.338 28.7411 38.3946 29.0911 37.0601 29.2536C36.661 29.3036 36.5986 28.9536 36.9603 28.6911C39.3051 27.0411 43.159 27.5161 43.608 28.0661C44.0569 28.6286 43.4832 32.4909 41.2881 34.3409C40.9514 34.6284 40.6271 34.4784 40.7768 34.1034C41.2757 32.8659 42.3857 30.0785 41.8619 29.4161Z" fill="#FF9900"/>
</svg>
