<svg width="50" height="50" viewBox="0 0 50 50" fill="none" xmlns="http://www.w3.org/2000/svg">
<path d="M7.34922 44.5795L3.42188 0.52832H46.5781L42.6469 44.5729L24.9738 49.4725L7.34922 44.5795V44.5795Z" fill="#1572B6"/>
<path d="M25.0005 45.7275L39.2813 41.7682L42.6411 4.12988H25.0005V45.7275Z" fill="#33A9DC"/>
<path d="M25.0005 20.0895H32.1497L32.6435 14.557H25.0005V9.1543H38.5481L38.4185 10.6039L37.0903 25.4922H25.0005V20.0895Z" fill="white"/>
<path d="M25.0326 34.1209L25.0088 34.1279L18.992 32.5033L18.6072 28.1943H13.1846L13.9412 36.6775L25.008 39.749L25.0326 39.742V34.1209V34.1209Z" fill="#EBEBEB"/>
<path d="M31.6902 25.2637L31.0395 32.4988L25.0137 34.1254V39.7465L36.0895 36.6769L36.1707 35.7641L37.1105 25.2637H31.6902Z" fill="white"/>
<path d="M25.0185 9.1543V14.557H11.9685L11.8603 13.343L11.6142 10.6039L11.4849 9.1543H25.0185V9.1543ZM25.0001 20.0902V25.493H19.0591L18.9509 24.2789L18.7044 21.5398L18.5755 20.0902H25.0001V20.0902Z" fill="#EBEBEB"/>
</svg>
