<svg width="50" height="50" viewBox="0 0 50 50" fill="none" xmlns="http://www.w3.org/2000/svg">
<path d="M10.6836 31.4532L14.8555 4.71878C15 3.80863 16.2227 3.58988 16.6523 4.40628L21.1367 12.7969L10.6836 31.4532V31.4532ZM40.3477 37.9493L36.3672 13.3243C36.2461 12.5586 35.2891 12.2461 34.7383 12.7969L9.65234 37.9493L23.5352 45.7422C23.9648 45.9786 24.4472 46.1026 24.9375 46.1026C25.4278 46.1026 25.9102 45.9786 26.3398 45.7422L40.3477 37.9493V37.9493ZM29.0781 16.4649L25.8633 10.3516C25.5039 9.65628 24.5195 9.65628 24.1602 10.3516L10.0391 35.5274L29.0781 16.4649V16.4649Z" fill="#F58220"/>
</svg>
