<svg width="50" height="50" viewBox="0 0 50 50" fill="none" xmlns="http://www.w3.org/2000/svg">
<path fill-rule="evenodd" clip-rule="evenodd" d="M25.0002 1.99316C11.974 1.99316 1.41113 12.5537 1.41113 25.5822C1.41113 36.0049 8.17012 44.8467 17.5428 47.9662C18.7213 48.185 19.1541 47.4545 19.1541 46.8314C19.1541 46.2689 19.1322 44.4107 19.1221 42.4397C12.5596 43.8666 11.1748 39.6565 11.1748 39.6565C10.1018 36.9299 8.55566 36.2049 8.55566 36.2049C6.41504 34.7408 8.71699 34.7713 8.71699 34.7713C11.0854 34.9373 12.333 37.2022 12.333 37.2022C14.4369 40.8076 17.8514 39.7654 19.1975 39.1631C19.4092 37.6385 20.0205 36.5975 20.6951 36.0084C15.4557 35.4127 9.94746 33.3897 9.94746 24.351C9.94746 21.7756 10.8693 19.6713 12.3783 18.0189C12.133 17.4252 11.3256 15.026 12.6064 11.7768C12.6064 11.7768 14.5869 11.1428 19.0947 14.1947C20.9768 13.6717 22.9951 13.4088 25.0002 13.3998C27.0041 13.4088 29.0236 13.6709 30.9092 14.1939C35.4115 11.142 37.3896 11.776 37.3896 11.776C38.6736 15.0248 37.8662 17.4244 37.6213 18.0182C39.1338 19.6705 40.049 21.7748 40.049 24.3502C40.049 33.4104 34.5307 35.4049 29.2779 35.9893C30.1244 36.7213 30.8783 38.1572 30.8783 40.3576C30.8783 43.5139 30.851 46.0541 30.851 46.8311C30.851 47.4588 31.276 48.1943 32.4713 47.9627C41.8385 44.84 48.5896 36.001 48.5896 25.5822C48.5893 12.5545 38.0275 1.99355 25.0002 1.99355V1.99316Z" fill="#181616"/>
<path d="M10.3455 35.8617C10.2936 35.9789 10.1092 36.0141 9.94125 35.934C9.76938 35.8574 9.67367 35.6977 9.72914 35.5801C9.77992 35.459 9.96469 35.4258 10.1354 35.5066C10.3073 35.5836 10.4049 35.7449 10.3452 35.8621L10.3455 35.8617ZM11.301 36.9277C11.1889 37.032 10.969 36.9836 10.8198 36.8184C10.6651 36.6543 10.6362 36.4344 10.7506 36.3285C10.867 36.2246 11.0803 36.2738 11.235 36.4379C11.3889 36.6043 11.4194 36.8223 11.3014 36.9281L11.301 36.9277ZM12.2315 38.2859C12.087 38.3867 11.8502 38.2926 11.7041 38.0828C11.5596 37.8727 11.5596 37.6207 11.708 37.5203C11.8538 37.4195 12.087 37.5105 12.2354 37.7184C12.3791 37.9312 12.3791 38.1832 12.2315 38.2855V38.2859ZM13.5053 39.5988C13.3764 39.7414 13.1006 39.7031 12.8991 39.509C12.6932 39.3187 12.6358 39.048 12.7651 38.9059C12.8963 38.7629 13.1733 38.8027 13.376 38.9957C13.5819 39.1855 13.644 39.4566 13.5061 39.5984L13.5053 39.5988ZM15.2631 40.3609C15.2057 40.5457 14.9409 40.6297 14.6733 40.5508C14.4065 40.4699 14.2319 40.2539 14.2866 40.0672C14.3413 39.8809 14.608 39.7937 14.8772 39.8777C15.144 39.9582 15.3186 40.173 15.2631 40.3609ZM17.194 40.5019C17.2006 40.6965 16.9741 40.8574 16.694 40.8613C16.4116 40.868 16.183 40.7101 16.1803 40.5187C16.1803 40.3223 16.4022 40.1633 16.6842 40.1578C16.9643 40.1527 17.1944 40.309 17.1944 40.5016L17.194 40.5019ZM18.9901 40.1965C19.0237 40.3859 18.8287 40.5809 18.5502 40.6328C18.2768 40.6836 18.0229 40.5656 17.9877 40.3777C17.9541 40.1832 18.1526 39.9883 18.426 39.9379C18.7049 39.8898 18.9549 40.0043 18.9901 40.1969V40.1965Z" fill="#181616"/>
</svg>
