<svg width="50" height="50" viewBox="0 0 50 50" fill="none" xmlns="http://www.w3.org/2000/svg">
<path d="M7.43652 44.4829L3.52832 0.648926H46.4721L42.5596 44.4763L24.974 49.3513L7.43652 44.4829Z" fill="#E44D26"/>
<path d="M25 45.6251L39.2102 41.6853L42.5535 4.23291H25V45.6251Z" fill="#F16529"/>
<path d="M24.9999 20.4901H17.8858L17.3944 14.9847H24.9999V9.60889H11.519L11.6479 11.0511L12.969 25.8663H24.9999V20.4901ZM24.9999 34.4522L24.9761 34.4589L18.989 32.8417L18.6065 28.5546H13.2093L13.9624 36.9956L24.9753 40.0526L24.9999 40.046V34.4522Z" fill="#EBEBEB"/>
<path d="M24.9814 20.4901V25.8663H31.6014L30.9775 32.8386L24.9814 34.4569V40.0503L36.0029 36.9956L36.0838 36.0874L37.3471 21.9339L37.4779 20.4901H36.0295H24.9814ZM24.9814 9.60889V14.9847H37.9674L38.0752 13.7769L38.3205 11.0511L38.449 9.60889H24.9814Z" fill="white"/>
</svg>
