<svg width="50" height="50" viewBox="0 0 50 50" fill="none" xmlns="http://www.w3.org/2000/svg">
<path d="M0.549805 0.549805H49.4498V49.4502H0.549805V0.549805Z" fill="#F0DB4F"/>
<path d="M45.4481 37.7876C45.0898 35.5568 43.6352 33.683 39.3262 31.9357C37.8293 31.2478 36.1605 30.7552 35.6633 29.6209C35.4867 28.9607 35.4633 28.5888 35.575 28.1892C35.8957 26.8923 37.4438 26.488 38.6707 26.8599C39.4609 27.1248 40.209 27.7337 40.6602 28.7052C42.7703 27.3388 42.766 27.3478 44.2395 26.4087C43.7 25.5724 43.4121 25.1865 43.059 24.8287C41.7898 23.4111 40.0605 22.681 37.2949 22.7369L35.8543 22.9232C34.4738 23.272 33.1582 23.9966 32.3867 24.9681C30.0719 27.5947 30.732 32.1916 33.5488 34.0834C36.3238 36.1662 40.4004 36.64 40.9211 38.5876C41.4277 40.972 39.1688 41.7439 36.9234 41.4697C35.2688 41.1255 34.3484 40.2845 33.3535 38.7552C31.5223 39.815 31.5223 39.815 29.6395 40.8978C30.0859 41.874 30.5551 42.3158 31.3035 43.1615C34.8457 46.7544 43.7098 46.5779 45.2996 41.1396C45.3641 40.9529 45.7922 39.7076 45.4481 37.7876V37.7876ZM27.1336 23.0248H22.5598L22.541 34.8498C22.541 37.3646 22.6711 39.6701 22.2621 40.3767C21.593 41.7666 19.859 41.5943 19.0688 41.3248C18.2645 40.9294 17.8555 40.3673 17.3816 39.5728C17.2516 39.3447 17.1539 39.1681 17.1211 39.1544L13.4023 41.4318C14.0207 42.7009 14.9316 43.8025 16.0984 44.5181C17.8414 45.5642 20.184 45.8849 22.634 45.3224C24.2285 44.858 25.6043 43.8959 26.3246 42.4314C27.366 40.5115 27.1426 38.1876 27.1332 35.6173C27.1566 31.424 27.1336 27.2314 27.1336 23.0248V23.0248Z" fill="#323330"/>
</svg>
