<svg width="50" height="50" viewBox="0 0 50 50" fill="none" xmlns="http://www.w3.org/2000/svg">
<path d="M49.0147 47.9621L47.9928 46.9711C47.0245 45.6852 45.7787 44.5555 44.4713 43.6176C43.4288 42.8691 41.0881 41.8582 40.653 40.6453L40.5729 40.5691C41.3123 40.4855 42.1756 40.2184 42.858 40.0352C44.0041 39.7281 44.9502 39.8074 46.1338 39.502C46.6674 39.3496 47.2662 39.1969 47.6569 39.0445V38.7398C47.2662 38.1262 46.7088 37.3137 46.0565 36.7582C44.3498 35.3051 42.5248 33.8531 40.6069 32.6422C39.5432 31.9711 38.2471 31.5348 37.1202 30.9656C36.7409 30.7738 36.0842 30.6742 35.8334 30.3555C35.2409 29.6008 34.9241 28.6438 34.467 27.7645C33.5104 25.9219 32.5729 23.9098 31.7252 21.9711C31.1471 20.6492 30.7709 19.3461 30.0498 18.1602C26.5889 12.4699 22.8643 9.03594 17.094 5.66016C15.8655 4.94219 14.3873 4.65899 12.8248 4.28789C11.9873 4.2375 11.1487 4.18633 10.3104 4.13516C9.79828 3.92188 9.26586 3.2957 8.78617 2.9918C6.87367 1.78399 1.97016 -0.842967 0.554141 2.61094C-0.339999 4.79102 1.89008 6.91758 2.68773 8.02266C3.24828 8.79688 3.96508 9.66602 4.36469 10.5375C4.62836 11.1105 4.67328 11.6852 4.89867 12.291C5.45258 13.784 5.93422 15.4082 6.65141 16.7875C7.01352 17.4859 7.41273 18.2211 7.87094 18.8453C8.15141 19.2285 8.63266 19.3973 8.70883 19.9887C8.23852 20.6473 8.21156 21.6699 7.94711 22.5043C6.7557 26.2602 7.2057 30.9289 8.93813 33.7086C9.46938 34.5625 10.7217 36.3926 12.444 35.6902C13.9502 35.077 13.7041 33.1754 14.135 31.498C14.2323 31.1184 14.0627 30.8387 14.4534 30.5836V30.6598C14.853 31.587 15.2806 32.502 15.7354 33.4035C16.751 35.0391 18.4264 36.748 19.9534 37.9012C20.7452 38.4992 21.4846 39.5328 22.2659 39.8828V39.8434H22.3522C22.1541 39.4527 21.8436 39.3875 21.5905 39.1387C20.994 38.5543 20.3303 37.8176 19.8377 37.1477C18.4487 35.2621 17.2213 33.1937 16.103 31.0453C15.5686 30.0195 15.1041 28.8855 14.6541 27.8418C14.4811 27.4395 14.483 26.8293 14.1213 26.6211C13.628 27.3859 12.9018 28.0039 12.5202 28.9074C11.9104 30.3512 11.8319 32.1121 11.6057 33.9375C11.4717 33.9852 11.5315 33.9523 11.453 34.0133C10.3913 33.7574 10.0186 32.6648 9.62367 31.727C8.62563 29.3559 8.44047 25.5383 9.31859 22.8094C9.54594 22.1027 10.5729 19.8793 10.1569 19.2266C9.95844 18.5762 9.30375 18.1992 8.93773 17.702C8.48422 17.0871 8.03188 16.2777 7.71781 15.5676C6.90102 13.7195 6.52016 11.6441 5.66 9.77539C5.24867 8.88203 4.55375 7.97774 3.98305 7.18399C3.35141 6.30391 2.64359 5.65586 2.15336 4.59219C1.97953 4.21406 1.74281 3.6086 2.00102 3.21992C2.08305 2.95781 2.19906 2.84844 2.45844 2.76289C2.90102 2.42188 4.13148 2.87617 4.59242 3.06719C5.81469 3.575 6.835 4.04375 7.87055 4.72969C8.36703 5.05938 8.87016 5.46797 9.47094 5.85859H10.1569C11.2299 5.85859 12.4319 5.94922 13.4346 6.25391C15.2061 6.79258 16.794 7.6375 18.2362 8.54805C22.6291 11.3223 26.2209 15.2746 28.6784 19.9848C29.0737 20.7434 29.2448 21.4687 29.5928 22.273C30.2952 23.8953 31.1803 25.5652 31.8791 27.1516C32.5768 28.7348 33.2565 30.332 34.2424 31.6492C34.7608 32.3414 36.7623 32.7133 37.6721 33.098C38.31 33.3672 39.3549 33.6484 39.9588 34.0121C41.1123 34.7082 42.2299 35.5371 43.3127 36.2992C43.8534 36.6797 45.5159 37.5156 45.5991 38.2047C42.9182 38.1313 40.8709 38.3812 39.1205 39.1191C38.6233 39.3289 37.8295 39.3348 37.7483 39.9578C38.0217 40.2441 38.0643 40.6723 38.2815 41.0246C38.6991 41.7004 39.4049 42.6074 40.0346 43.0824C40.7229 43.602 41.4315 44.157 42.169 44.6066C43.4811 45.4062 44.9452 45.8633 46.2084 46.6645C46.953 47.1371 47.7545 47.732 48.4799 48.2648C48.8393 48.5285 48.828 48.9383 49.6092 49.1035V49.0277C49.219 48.7172 49.2397 48.2883 49.0147 47.9621V47.9621ZM11.5291 9.16602C10.9702 9.15547 10.5471 9.22735 10.1565 9.31797V9.375H10.2338C10.5006 9.76563 10.9713 10.2852 11.3006 10.757L12.0631 12.3617L12.1385 12.2887C12.6108 11.9555 12.8272 11.425 12.8245 10.6125C12.6358 10.4137 12.6073 10.1648 12.444 9.92734C12.226 9.61133 11.8038 9.43203 11.5291 9.16602V9.16602Z" fill="#00618A"/>
</svg>
