<svg width="50" height="50" viewBox="0 0 50 50" fill="none" xmlns="http://www.w3.org/2000/svg">
<path d="M44.0148 11.8493L26.7715 1.84736C25.6852 1.22861 24.2621 1.22861 23.1672 1.84736L5.78906 11.8493C4.66836 12.4942 3.90625 13.7063 3.90625 15.0028V34.9802C3.90625 36.2767 4.68438 37.4892 5.80547 38.1376L10.3871 40.7501C12.5852 41.8329 13.1941 41.8329 14.1941 41.8329C17.4496 41.8329 19.1402 39.8646 19.1402 36.4313V16.7087C19.1406 16.4302 19.3145 16.0157 19.0406 16.0157H16.8445C16.5664 16.0157 16.0156 16.4302 16.0156 16.7083V36.431C16.0156 37.9528 14.6031 39.4673 12.0305 38.181L7.29531 35.4415C7.13047 35.3517 7.03125 35.1708 7.03125 34.9802V15.0028C7.03125 14.8146 7.21211 14.6255 7.3793 14.529L24.7145 4.54424C24.7996 4.49903 24.8945 4.47538 24.9908 4.47538C25.0872 4.47538 25.1821 4.49903 25.2672 4.54424L42.4402 14.5267C42.6047 14.6255 42.5785 14.8087 42.5785 15.0028V34.9802C42.5785 35.1708 42.6145 35.3563 42.4523 35.4481L25.2129 45.4388C25.0652 45.5274 24.873 45.5274 24.7109 45.4388L20.2902 42.8024C20.157 42.7251 19.9965 42.6974 19.8684 42.7688C18.6398 43.4653 18.4117 43.5579 17.2594 43.9575C16.9754 44.0563 16.5566 44.2278 17.4187 44.711L23.1992 48.1306C23.7511 48.4494 24.3771 48.6173 25.0145 48.6173C25.6543 48.6183 26.283 48.4504 26.8371 48.1306L44.0152 38.1376C45.1367 37.4845 45.7035 36.2767 45.7035 34.9802V15.0028C45.7031 13.7063 45.1363 12.4974 44.0148 11.8493V11.8493ZM30.3621 31.8146C25.7812 31.8146 24.7727 30.5509 24.4363 28.2731C24.3965 28.0278 24.1887 27.7345 23.9387 27.7345H21.7004C21.4234 27.7345 21.2004 28.0704 21.2004 28.3462C21.2004 31.2626 22.7863 34.7962 30.3621 34.7962C35.8457 34.7962 38.9902 32.6653 38.9902 28.8942C38.9902 25.1552 36.4641 24.1739 31.1457 23.47C25.7699 22.7595 25.2238 22.4005 25.2238 21.1411C25.2238 20.1028 25.6863 18.7181 29.6668 18.7181C33.223 18.7181 34.534 19.4813 35.0734 21.8786C35.1199 22.104 35.3258 22.2657 35.5582 22.2657H37.8059C37.9441 22.2657 38.0758 22.2099 38.1727 22.111C38.2668 22.0048 38.316 21.8716 38.3039 21.7286C37.9551 17.6001 35.2129 15.6763 29.6664 15.6763C24.732 15.6763 21.7891 17.7599 21.7891 21.2524C21.7891 25.0407 24.7176 26.0876 29.4539 26.556C35.1199 27.1114 35.5605 27.9396 35.5605 29.054C35.5605 30.9899 34.0066 31.8146 30.3621 31.8146Z" fill="#83CD29"/>
</svg>
