<svg width="50" height="50" viewBox="0 0 50 50" fill="none" xmlns="http://www.w3.org/2000/svg">
<path d="M36.6444 35.9813C36.951 33.4294 36.8592 33.0548 38.76 33.4684L39.2424 33.5106C40.7041 33.577 42.6163 33.2755 43.7397 32.7536C46.1581 31.6313 47.5916 29.7583 45.2077 30.2501C39.7686 31.3723 39.3948 29.5305 39.3948 29.5305C45.1381 21.0091 47.5389 10.1915 45.4663 7.54343C39.8139 0.321168 30.0299 3.7364 29.8663 3.82468L29.8139 3.83445C28.7393 3.6114 27.5366 3.4782 26.1854 3.45632C23.7241 3.4157 21.8565 4.10164 20.4397 5.17586C20.4397 5.17586 2.9854 -2.01516 3.7975 14.2192C3.97016 17.6727 8.7475 40.3512 14.4459 33.5012C16.5288 30.9966 18.5413 28.8786 18.5413 28.8786C19.5405 29.5423 20.7373 29.8813 21.992 29.7594L22.0893 29.6766C22.0588 29.9876 22.0721 30.2919 22.128 30.652C20.6604 32.2923 21.0916 32.5801 18.1569 33.1841C15.1873 33.7958 16.9319 34.8852 18.0706 35.17C19.4514 35.5153 22.6456 36.0044 24.8041 32.9833L24.7182 33.3278C25.294 33.7887 25.2553 36.6391 25.3366 38.6755C25.4182 40.7122 25.5545 42.6126 25.9698 43.7333C26.385 44.8536 26.8748 47.7395 30.7319 46.913C33.9553 46.2239 36.4198 45.2298 36.6444 35.9813Z" fill="black"/>
<path d="M29.4758 48.9281C27.7699 48.9281 26.659 48.2684 25.9844 47.6313C24.966 46.6703 24.5621 45.4324 24.3207 44.693L24.2164 44.3844C23.7305 43.0727 23.5656 41.184 23.468 38.752C23.4531 38.3867 23.443 38.0106 23.4316 37.6117C23.4234 37.3199 23.4133 36.9539 23.3984 36.5711C22.7839 36.8641 22.1315 37.0703 21.4602 37.1836C20.2574 37.3891 18.9645 37.3227 17.6164 36.9856C16.6652 36.7477 15.677 36.2547 15.1137 35.4934C13.4719 36.9313 11.9059 36.7363 11.0527 36.4516C9.54766 35.9496 8.20078 34.5391 6.93476 32.1403C6.03281 30.4313 5.16055 28.2047 4.3418 25.5219C2.91601 20.85 2.01015 15.9293 1.92969 14.3137C1.67656 9.25705 3.03789 5.64064 5.975 3.56603C10.6082 0.293378 17.6281 2.21799 20.1875 3.09182C21.907 2.05549 23.9301 1.55119 26.216 1.58752C27.4437 1.60744 28.6129 1.71525 29.6988 1.909C30.8316 1.55275 33.0691 1.04142 35.6305 1.07346C40.3496 1.12971 44.2602 2.96877 46.9387 6.39182C48.8504 8.834 47.9051 13.9625 47.1719 16.8024C46.1398 20.7969 44.3316 25.0453 42.1105 28.7438C42.7137 28.7481 43.5875 28.6758 44.8297 28.4192C47.2805 27.9133 47.9973 29.2274 48.1918 29.8156C48.9711 32.1758 45.5836 33.9594 44.527 34.45C43.173 35.0785 40.9656 35.4613 39.1578 35.3785L39.0789 35.3735L38.6039 35.3317L38.557 35.7278L38.5117 36.1149C38.3902 40.802 37.7207 43.7703 36.343 45.7317C34.8988 47.7879 32.8918 48.3641 31.1238 48.743C30.5207 48.8719 29.9727 48.9281 29.4758 48.9281V48.9281ZM25.8859 31.8692C26.9871 32.7504 27.0836 34.4086 27.1699 37.5074C27.1809 37.8942 27.191 38.2602 27.2047 38.602C27.2461 39.6371 27.3434 42.061 27.723 43.0852C27.7766 43.2301 27.8246 43.377 27.8754 43.5328C28.2984 44.8281 28.5105 45.4778 30.3398 45.0867C31.8754 44.7574 32.6648 44.4621 33.2828 43.5824C34.1809 42.3035 34.6832 39.7309 34.7754 35.936L36.6438 35.9813L34.7883 35.7586L34.843 35.2953C35.0207 33.768 35.1488 32.6649 36.1695 31.9352C36.9887 31.35 37.9219 31.4067 38.6652 31.5406C37.8484 30.9235 37.6227 30.1996 37.5625 29.9028L37.4066 29.1352L37.8445 28.4856C40.3668 24.7434 42.4465 20.1442 43.5512 15.8668C44.6863 11.4719 44.3402 9.13791 43.9941 8.6965C39.4125 2.84221 31.4676 5.25939 30.6379 5.53361L30.4977 5.60939L29.7945 5.74025L29.4344 5.66564C28.4414 5.45939 27.3383 5.34533 26.1559 5.32619C24.298 5.29494 22.7992 5.734 21.5703 6.66642L20.7176 7.31291L19.7281 6.90549C17.6141 6.04103 11.4047 4.30314 8.12812 6.62385C6.30937 7.91213 5.48086 10.4363 5.66523 14.1266C5.72617 15.3449 6.5539 19.957 7.91953 24.4301C9.80664 30.6117 11.5215 32.6653 12.2375 32.9039C12.3625 32.9461 12.6867 32.6942 13.0094 32.3067C14.3547 30.6939 15.7478 29.1216 17.1867 27.5918L18.2688 26.4531L19.577 27.3223C20.1043 27.6727 20.6859 27.8715 21.2832 27.909L24.4031 25.2481L23.9512 29.8606C23.941 29.9641 23.9359 30.1051 23.9766 30.3668L24.1125 31.241L23.5227 31.9004L23.4547 31.977L25.1687 32.768L25.8859 31.8692V31.8692Z" fill="black"/>
<path d="M45.2073 30.2499C39.7679 31.3722 39.3941 29.5304 39.3941 29.5304C45.1374 21.0085 47.5382 10.1905 45.4663 7.54328C39.814 0.321406 30.0292 3.73664 29.8659 3.82531L29.8132 3.83469C28.7386 3.61164 27.5359 3.47883 26.1839 3.45695C23.7226 3.41672 21.8558 4.10227 20.439 5.17648C20.439 5.17648 2.98429 -2.01414 3.79601 14.2198C3.96867 17.6738 8.74601 40.3523 14.4445 33.5023C16.5273 30.9976 18.5394 28.8796 18.5394 28.8796C19.539 29.5433 20.7355 29.8823 21.9898 29.7605L22.0874 29.6777C22.057 29.9886 22.071 30.2929 22.1265 30.653C20.6585 32.2933 21.0898 32.5812 18.155 33.1851C15.1855 33.7968 16.93 34.8863 18.0691 35.171C19.4495 35.5163 22.6441 36.0054 24.8023 32.9843L24.7159 33.3288C25.2913 33.7898 25.6952 36.3257 25.6277 38.6245C25.5597 40.9234 25.5144 42.5019 25.9679 43.7347C26.421 44.9675 26.8726 47.7409 30.7304 46.9144C33.9538 46.2238 35.6241 44.4335 35.857 41.4476C36.0218 39.3245 36.3948 39.6386 36.4187 37.7405L36.7183 36.8421C37.0636 33.9644 36.773 33.0363 38.7593 33.4679L39.2417 33.5101C40.7034 33.5765 42.6163 33.2749 43.7394 32.753C46.1573 31.6316 47.5913 29.7581 45.2073 30.2499V30.2499Z" fill="#336791"/>
<path d="M29.6706 47.7762C26.4549 47.7762 25.4362 45.2297 25.0194 44.1883C24.4092 42.6621 24.2776 36.7395 24.4135 31.8824C24.4155 31.8005 24.4337 31.7198 24.4671 31.645C24.5004 31.5701 24.5483 31.5026 24.6078 31.4464C24.6674 31.3901 24.7374 31.3461 24.814 31.3171C24.8907 31.288 24.9723 31.2744 25.0541 31.277C25.136 31.2792 25.2165 31.2975 25.2912 31.3309C25.366 31.3643 25.4334 31.4121 25.4896 31.4716C25.5458 31.531 25.5898 31.601 25.619 31.6775C25.6481 31.7539 25.662 31.8354 25.6596 31.9172C25.503 37.5192 25.7252 42.5957 26.1768 43.7254C26.8815 45.4867 27.9502 47.0274 30.9717 46.3801C33.8401 45.7649 34.9143 44.6774 35.3928 41.9035C35.76 39.775 36.4862 33.7195 36.5756 32.5246C36.5816 32.443 36.6036 32.3633 36.6405 32.2902C36.6773 32.217 36.7282 32.1519 36.7903 32.0985C36.8523 32.0451 36.9243 32.0044 37.0021 31.9789C37.0799 31.9533 37.162 31.9434 37.2436 31.9496C37.4084 31.9621 37.5614 32.0395 37.6692 32.1647C37.777 32.2899 37.8308 32.4528 37.8186 32.6176C37.7252 33.8617 37.0026 39.9055 36.6213 42.1156C36.0565 45.3918 34.5959 46.8777 31.2331 47.5988C30.6616 47.7211 30.1424 47.7758 29.6706 47.7762V47.7762ZM12.2346 35.3383C11.9535 35.3373 11.6745 35.2912 11.4081 35.2016C9.31938 34.5047 7.32993 31.1031 5.49477 25.0902C4.09789 20.5133 3.21274 15.736 3.135 14.1832C2.90493 9.58009 4.09008 6.32345 6.65844 4.50431C11.7393 0.904312 20.2866 4.33244 20.6479 4.48009C20.801 4.54262 20.9229 4.66338 20.987 4.81583C21.051 4.96828 21.0518 5.13991 20.9893 5.29298C20.9268 5.44605 20.806 5.56802 20.6536 5.63204C20.5011 5.69607 20.3295 5.69691 20.1764 5.63439C20.094 5.6008 11.8979 2.3172 7.37641 5.52306C5.18032 7.08009 4.17211 9.97306 4.37954 14.1211C4.44477 15.4293 5.27172 20.0918 6.68657 24.7262C8.32485 30.0942 10.1893 33.4813 11.8022 34.0192C12.0553 34.1035 12.8256 34.3602 13.9268 33.036C15.211 31.4937 16.5433 29.9922 17.9217 28.5336C18.0371 28.4186 18.1929 28.3532 18.3558 28.3516C18.5187 28.35 18.6757 28.4122 18.7934 28.5249C18.911 28.6376 18.9798 28.7919 18.9851 28.9547C18.9904 29.1175 18.9318 29.276 18.8217 29.3961C18.803 29.4156 16.9284 31.3754 14.8854 33.8332C13.9178 34.9969 12.9905 35.3383 12.2346 35.3383V35.3383ZM39.3553 30.0863C39.2423 30.0862 39.1315 30.0553 39.0347 29.9971C38.9379 29.9388 38.8587 29.8553 38.8057 29.7555C38.7526 29.6558 38.7277 29.5434 38.7336 29.4306C38.7394 29.3177 38.7758 29.2086 38.8389 29.1149C44.6448 20.4996 46.6827 10.0899 44.9373 7.85939C42.7405 5.05236 39.6385 3.58634 35.717 3.50158C32.8135 3.43908 30.5057 4.18048 30.1284 4.30978L30.0334 4.34845C29.6541 4.46759 29.3631 4.25978 29.2534 4.01681C29.1908 3.87761 29.1813 3.72031 29.2267 3.57459C29.2721 3.42888 29.3693 3.30481 29.4998 3.2258C29.5178 3.21525 29.5748 3.19103 29.6674 3.15705L29.6592 3.15939L29.6674 3.15666C30.3084 2.92189 32.6514 2.21916 35.5534 2.25236C39.8924 2.29845 43.4768 3.9715 45.9182 7.09142C47.0733 8.56759 47.076 11.9684 45.9256 16.4223C44.753 20.9633 42.5463 25.8434 39.8721 29.8117C39.7526 29.9903 39.5557 30.0863 39.3553 30.0863ZM39.6522 34.0746C38.6608 34.0746 37.7721 33.9348 37.2401 33.616C36.6932 33.2883 36.5889 32.843 36.5752 32.6067C36.426 29.9856 37.8721 29.5293 38.6096 29.3211C38.5069 29.1656 38.3608 28.9828 38.2096 28.7942C37.7795 28.2567 37.1905 27.5207 36.7366 26.4199C36.6655 26.2481 36.4428 25.8485 36.185 25.3856C34.787 22.8785 31.878 17.6617 33.7467 14.9902C34.6116 13.7539 36.3338 13.2672 38.8713 13.5387C38.1248 11.2645 34.5702 4.15041 26.1354 4.01212C23.5987 3.96994 21.5182 4.75001 19.9549 6.32853C16.4549 9.8633 16.5815 16.259 16.5834 16.3231C16.5856 16.4049 16.5716 16.4863 16.5423 16.5627C16.513 16.6392 16.4689 16.709 16.4126 16.7684C16.3562 16.8278 16.2887 16.8755 16.214 16.9088C16.1392 16.9421 16.0586 16.9604 15.9768 16.9625C15.895 16.9647 15.8135 16.9507 15.7371 16.9214C15.6607 16.892 15.5908 16.848 15.5314 16.7916C15.4721 16.7353 15.4244 16.6678 15.3911 16.5931C15.3578 16.5183 15.3395 16.4377 15.3373 16.3559C15.3295 16.0719 15.1991 9.36017 19.0694 5.45119C20.8807 3.62189 23.2651 2.71876 26.1561 2.76603C31.5522 2.8547 35.0256 5.59806 36.9889 7.88361C39.1291 10.3746 40.1784 13.1223 40.2647 14.0395C40.3291 14.7215 39.8397 14.8578 39.7409 14.8781L39.5159 14.8832C37.0256 14.4844 35.428 14.7613 34.7674 15.7051C33.3459 17.7367 36.0979 22.6715 37.2729 24.7789C37.5729 25.3164 37.7893 25.7051 37.8885 25.9449C38.2745 26.8809 38.778 27.5098 39.1823 28.0153C39.5381 28.4598 39.8463 28.8453 39.9565 29.2977C40.0077 29.3875 40.7338 30.4617 45.0428 29.5723C46.1229 29.3496 46.7706 29.5399 46.9686 30.1387C47.3581 31.3164 45.1729 32.6903 43.9631 33.252C42.8791 33.7559 41.1491 34.0746 39.6522 34.0746V34.0746ZM37.8178 32.5039C37.9545 32.6418 38.6385 32.8797 40.0549 32.8188C41.3143 32.7649 42.6424 32.491 43.4393 32.1211C44.4584 31.6477 45.1389 31.1184 45.4913 30.757L45.2959 30.793C42.5409 31.3617 40.592 31.286 39.5038 30.5676C39.4306 30.5193 39.3602 30.467 39.2928 30.411C39.1748 30.4574 39.0659 30.4879 38.9881 30.5098C38.3709 30.6828 37.7327 30.8621 37.8178 32.5039ZM20.0202 35.9863C19.3358 35.9863 18.6155 35.893 17.8799 35.709C17.1178 35.5184 15.8331 34.9445 15.8526 34.002C15.8748 32.9445 17.4127 32.6274 17.9916 32.5082C20.0831 32.0774 20.2194 31.9047 20.8729 31.0746C21.0635 30.8328 21.3006 30.5317 21.6241 30.1707C22.1041 29.6332 22.6288 29.361 23.1834 29.361C23.5698 29.361 23.8866 29.4918 24.0959 29.5789C24.7631 29.8555 25.3198 30.5242 25.5487 31.3238C25.7553 32.0453 25.6565 32.7399 25.2713 33.2793C24.0069 35.05 22.1909 35.9863 20.0202 35.9863ZM17.1991 34.0555C17.387 34.2008 17.7635 34.3949 18.1827 34.4996C18.8198 34.659 19.4377 34.7399 20.0206 34.7399C21.7963 34.7399 23.2221 34.0047 24.2577 32.5547C24.4737 32.2524 24.4088 31.8684 24.351 31.6664C24.2299 31.2434 23.9291 30.8586 23.6194 30.7301C23.4514 30.6606 23.312 30.6074 23.1838 30.6074C23.1151 30.6074 22.9057 30.6074 22.5534 31.0016C22.3102 31.275 22.0765 31.5567 21.8526 31.8461C21.0385 32.8797 20.6655 33.2305 18.2436 33.7293C17.6526 33.8504 17.3495 33.9738 17.1991 34.0555ZM21.9916 31.1805C21.8429 31.1802 21.6991 31.1268 21.5862 31.0298C21.4734 30.9328 21.399 30.7987 21.3764 30.6516C21.3609 30.5481 21.3505 30.444 21.3452 30.3395C19.7577 30.3098 18.226 29.6285 17.0631 28.4152C15.5928 26.8813 14.9237 24.7559 15.2276 22.5844C15.5577 20.2262 15.4342 18.1445 15.3678 17.0262C15.3495 16.7152 15.3362 16.4906 15.337 16.3352C15.3381 16.1379 15.342 15.6149 17.0905 14.7285C17.7123 14.4133 18.9592 13.8633 20.3213 13.7223C22.578 13.4891 24.0655 14.4942 24.5108 16.5527C25.7127 22.1106 24.6061 24.5688 23.7979 26.3641C23.6475 26.6985 23.5053 27.0141 23.3916 27.3199L23.2913 27.5895C22.8643 28.7344 22.4952 29.7235 22.6084 30.4621C22.6209 30.543 22.6173 30.6256 22.5978 30.7051C22.5783 30.7846 22.5433 30.8595 22.4949 30.9254C22.4465 30.9914 22.3855 31.0472 22.3155 31.0896C22.2455 31.1321 22.1679 31.1603 22.087 31.1727L21.9916 31.1805ZM16.5873 16.5078L16.6116 16.9527C16.6803 18.1145 16.8084 20.2762 16.4616 22.7574C16.2112 24.5485 16.7581 26.2965 17.9627 27.5528C18.9147 28.5457 20.1674 29.0938 21.4549 29.0938H21.4815C21.6256 28.4863 21.8651 27.8449 22.1229 27.1539L22.2225 26.886C22.351 26.5406 22.5014 26.2063 22.6608 25.8524C23.4385 24.1242 24.4069 21.9731 23.2916 16.8164C23.0709 15.7949 22.5354 15.2039 21.6553 15.009C19.8475 14.6098 17.1534 15.9695 16.5873 16.5078V16.5078ZM20.3491 16.2434C20.3178 16.4637 20.7526 17.052 21.3198 17.1305C21.8858 17.2098 22.3702 16.7496 22.401 16.5293C22.4319 16.309 21.9975 16.066 21.4303 15.9871C20.8635 15.9082 20.3791 16.0231 20.3491 16.2434ZM21.4498 17.3473L21.2909 17.3363C20.9393 17.2875 20.5838 17.066 20.3405 16.7434C20.2549 16.6301 20.1155 16.4106 20.1432 16.2145C20.1827 15.927 20.5334 15.7547 21.0807 15.7547C21.203 15.7547 21.3303 15.7637 21.4584 15.7817C21.7577 15.8231 22.0354 15.9094 22.2405 16.0238C22.5959 16.2223 22.6221 16.4438 22.6061 16.5582C22.5623 16.8758 22.0573 17.3473 21.4498 17.3473V17.3473ZM20.5557 16.2801C20.5733 16.416 20.91 16.8645 21.3483 16.925L21.4502 16.932C21.8549 16.932 22.1573 16.6137 22.1928 16.5094C22.1553 16.4383 21.8952 16.2617 21.4018 16.193C21.2956 16.1777 21.1884 16.17 21.0811 16.1699C20.7639 16.1699 20.5956 16.2414 20.5557 16.2801V16.2801ZM37.5889 15.7938C37.6198 16.0141 37.1854 16.6024 36.6186 16.6813C36.0522 16.7602 35.5674 16.3004 35.5362 16.0801C35.5065 15.8598 35.9409 15.6164 36.5073 15.5379C37.0737 15.4586 37.5577 15.5738 37.5889 15.7938V15.7938ZM36.4877 16.7938C35.9424 16.7938 35.4717 16.3695 35.4331 16.0942C35.3881 15.7637 35.9323 15.5125 36.4924 15.4348C36.6159 15.4176 36.7381 15.409 36.8557 15.409C37.3393 15.409 37.6596 15.5508 37.6916 15.7797C37.7123 15.9277 37.5987 16.1563 37.403 16.3625C37.2737 16.4981 37.0022 16.7328 36.6323 16.784L36.4877 16.7938V16.7938ZM36.8561 15.6168C36.7483 15.6168 36.6358 15.625 36.5217 15.6406C35.9588 15.7192 35.6229 15.9449 35.6393 16.066C35.6581 16.1992 36.0174 16.5863 36.4881 16.5863L36.6041 16.5781C36.9116 16.5356 37.1424 16.3348 37.2526 16.2192C37.4256 16.0375 37.4944 15.8664 37.4862 15.8082C37.4752 15.7309 37.2674 15.6168 36.8561 15.6168ZM38.4049 28.4461C38.292 28.4462 38.1812 28.4155 38.0843 28.3575C37.9875 28.2994 37.9083 28.2161 37.8551 28.1164C37.802 28.0168 37.777 27.9046 37.7827 27.7918C37.7885 27.679 37.8248 27.5699 37.8877 27.4762C39.2151 25.4938 38.9721 23.4723 38.7373 21.5172C38.637 20.6844 38.5338 19.8231 38.5604 18.9965C38.5877 18.1461 38.6959 17.4445 38.8002 16.766C38.9241 15.9621 39.0413 15.2027 38.9928 14.3012C38.9884 14.2195 39.0001 14.1377 39.0273 14.0605C39.0545 13.9833 39.0967 13.9122 39.1513 13.8513C39.206 13.7904 39.2721 13.7409 39.3459 13.7056C39.4197 13.6702 39.4998 13.6497 39.5815 13.6453C39.6632 13.6409 39.745 13.6526 39.8222 13.6798C39.8994 13.707 39.9704 13.7492 40.0313 13.8038C40.0922 13.8585 40.1418 13.9246 40.1771 13.9984C40.2125 14.0722 40.2329 14.1523 40.2373 14.234C40.2928 15.2645 40.1604 16.1238 40.0323 16.9555C39.9334 17.5973 39.8311 18.261 39.8065 19.0363C39.7827 19.7684 39.876 20.5457 39.9748 21.3684C40.2248 23.4473 40.508 25.8035 38.9237 28.1695C38.8666 28.2548 38.7894 28.3246 38.6989 28.3728C38.6085 28.4211 38.5075 28.4462 38.4049 28.4461V28.4461Z" fill="white"/>
</svg>
