<svg width="50" height="50" viewBox="0 0 50 50" fill="none" xmlns="http://www.w3.org/2000/svg">
<path d="M24.7622 4.78449C23.113 4.7923 21.5388 4.93254 20.1528 5.17785C16.0708 5.89894 15.3302 7.40832 15.3302 10.1923V13.8685H24.9759V15.0939H11.7098C8.90672 15.0939 6.45203 16.7786 5.68406 19.9849C4.79813 23.6587 4.75906 25.9517 5.68406 29.788C6.36961 32.6439 8.00711 34.6782 10.8106 34.6782H14.1274V30.2712C14.1274 27.0872 16.8817 24.279 20.1532 24.279H29.788C32.47 24.279 34.6106 22.0704 34.6106 19.3775V10.1927C34.6106 7.57824 32.4052 5.61457 29.788 5.17824C28.1302 4.90246 26.411 4.77707 24.7622 4.78449V4.78449ZM19.5458 7.74113C20.5419 7.74113 21.3559 8.56808 21.3559 9.58527C21.3559 10.5982 20.5423 11.4173 19.5458 11.4173C18.5458 11.4173 17.736 10.5982 17.736 9.58527C17.7356 8.56808 18.5458 7.74113 19.5458 7.74113V7.74113Z" fill="url(#paint0_linear_103_12)"/>
<path d="M35.8133 15.0937V19.3772C35.8133 22.6976 32.9977 25.4925 29.7875 25.4925H20.1527C17.5137 25.4925 15.3301 27.7515 15.3301 30.3944V39.58C15.3301 42.1937 17.6027 43.7315 20.1527 44.4812C23.2059 45.3784 26.134 45.5409 29.7875 44.4812C32.2156 43.7776 34.6102 42.3628 34.6102 39.58V35.9034H24.9758V34.6776H39.4336C42.2367 34.6776 43.282 32.7226 44.257 29.7874C45.2641 26.7659 45.2207 23.8601 44.257 19.9843C43.5641 17.1933 42.241 15.0933 39.4336 15.0933H35.8133V15.0937ZM30.3941 38.3542C31.3945 38.3542 32.2043 39.1733 32.2043 40.187C32.2043 41.2034 31.3941 42.0304 30.3941 42.0304C29.398 42.0304 28.5844 41.2034 28.5844 40.187C28.5844 39.1733 29.398 38.3542 30.3941 38.3542V38.3542Z" fill="url(#paint1_linear_103_12)"/>
<path opacity="0.444" d="M38.0114 46.7176C38.0114 48.1016 32.2239 49.2238 25.0853 49.2238C17.9462 49.2238 12.1587 48.1016 12.1587 46.7176C12.1587 45.3332 17.9458 44.2109 25.0853 44.2109C32.2239 44.2109 38.0114 45.3328 38.0114 46.7176Z" fill="url(#paint2_radial_103_12)"/>
<defs>
<linearGradient id="paint0_linear_103_12" x1="4.03792" y1="5.93396" x2="26.2855" y2="24.9066" gradientUnits="userSpaceOnUse">
<stop stop-color="#5A9FD4"/>
<stop offset="1" stop-color="#306998"/>
</linearGradient>
<linearGradient id="paint1_linear_103_12" x1="34.6558" y1="36.7" x2="26.6775" y2="25.5117" gradientUnits="userSpaceOnUse">
<stop stop-color="#FFD43B"/>
<stop offset="1" stop-color="#FFE873"/>
</linearGradient>
<radialGradient id="paint2_radial_103_12" cx="0" cy="0" r="1" gradientUnits="userSpaceOnUse" gradientTransform="translate(25.033 46.6458) rotate(-90) scale(2.50716 11.021)">
<stop stop-color="#B8B8B8" stop-opacity="0.498"/>
<stop offset="1" stop-color="#7F7F7F" stop-opacity="0"/>
</radialGradient>
</defs>
</svg>
