<svg width="50" height="50" viewBox="0 0 50 50" fill="none" xmlns="http://www.w3.org/2000/svg">
<path d="M46.8115 6.61564C41.2314 -0.0296719 30.2092 -1.9992 22.2428 2.22502L8.24706 9.64689C6.3537 10.6348 4.72909 11.9402 3.47675 13.4805C2.2244 15.0207 1.37245 16.7613 0.975184 18.591C0.798182 19.4121 0.708102 20.2495 0.706434 21.0895C0.715028 23.3672 1.38612 25.6094 2.66229 27.6246C1.46581 29.1371 0.649012 30.8356 0.261512 32.6176C-0.135406 34.4801 -0.0798147 36.4107 0.423621 38.2473C0.927528 40.0961 1.86972 41.8426 3.1955 43.3848C8.77518 50.0297 19.8221 51.9992 27.7639 47.7754L41.7451 40.3531C43.6373 39.3641 45.26 38.057 46.5092 36.5152C47.758 34.9735 48.6057 33.2313 48.9974 31.4008C49.1771 30.5777 49.2674 29.743 49.2662 28.9063C49.2627 26.6328 48.6002 24.3942 47.3346 22.3793C48.5307 20.868 49.3474 19.1711 49.7357 17.3906C49.9092 16.5668 49.9975 15.7324 49.9998 14.8961C50.0006 11.9293 48.8857 9.03673 46.8115 6.62345V6.61564V6.61564Z" fill="#FF3E00"/>
<path d="M20.8751 44.0105C19.9558 44.2075 19.0184 44.3071 18.0782 44.3074C16.2833 44.3078 14.5149 43.9461 12.9247 43.2527C11.3349 42.5598 9.97041 41.5562 8.94854 40.3281C7.70088 38.8766 7.03057 37.1363 7.03174 35.3516C7.03248 34.8484 7.08484 34.3467 7.18799 33.8543C7.27196 33.4837 7.38494 33.1204 7.52588 32.7676L7.78994 32.1004L8.50361 32.5519C10.161 33.5641 12.013 34.3348 13.9802 34.8308L14.4989 34.9609L14.4501 35.3922V35.616C14.4489 36.1555 14.6509 36.6824 15.0271 37.1215C15.331 37.4957 15.7403 37.8027 16.2192 38.0152C16.7097 38.2304 17.2395 38.3417 17.7751 38.3422C18.0579 38.3431 18.3399 38.3131 18.6161 38.2527C18.9159 38.1874 19.2054 38.0821 19.4771 37.9394L33.4575 30.4808C33.8767 30.2598 34.222 29.9539 34.4606 29.5918C34.6989 29.2297 34.8231 28.823 34.8216 28.4098C34.8177 27.8703 34.6106 27.3453 34.2298 26.9082C33.9212 26.5387 33.5095 26.2371 33.0302 26.0285C32.5394 25.8179 32.0107 25.7102 31.4767 25.7121C31.1939 25.7113 30.9119 25.7414 30.6356 25.8019C30.3373 25.8657 30.0493 25.971 29.7802 26.1148L24.4501 28.9469C23.5531 29.4168 22.5978 29.7657 21.6091 29.9844C20.695 30.1805 19.7556 30.2805 18.8118 30.2812C17.0173 30.2812 15.2497 29.9195 13.6599 29.2273C12.07 28.5351 10.7052 27.5328 9.68213 26.3062C8.43604 24.8539 7.76572 23.1141 7.76533 21.3297C7.76611 20.8277 7.81846 20.3269 7.92158 19.8324C8.16104 18.7324 8.67197 17.6859 9.42315 16.7594C10.1739 15.8324 11.1481 15.0457 12.2837 14.4492L26.279 7.03124C27.1571 6.56639 28.1149 6.21483 29.12 5.98944C30.0341 5.79452 30.9735 5.69647 31.9169 5.69647C33.7157 5.69257 35.4888 6.05194 37.0841 6.74374C38.6794 7.43514 40.0489 8.43905 41.0759 9.66796C42.3146 11.1238 42.9763 12.8648 42.9685 14.6484C42.9676 15.153 42.9151 15.6561 42.8118 16.15C42.728 16.5204 42.6151 16.8836 42.4743 17.2363L42.2103 17.9035L41.4966 17.4683C39.8403 16.4547 37.988 15.684 36.02 15.1894L35.5013 15.0555L35.5501 14.6238V14.4004C35.5501 13.8594 35.3485 13.332 34.9731 12.8906C34.6649 12.5215 34.2544 12.2203 33.7755 12.0117C33.2857 11.801 32.7579 11.693 32.2247 11.6941C31.9447 11.6992 31.6661 11.7347 31.3938 11.8C31.0935 11.8627 30.8037 11.9682 30.5333 12.1133L16.538 19.5312C16.206 19.7035 15.9124 19.9414 15.6751 20.2305C15.4538 20.5003 15.2989 20.8184 15.2228 21.159C15.1883 21.3005 15.167 21.4448 15.1591 21.5902C15.1587 22.1285 15.3603 22.6535 15.736 23.0918C16.0438 23.4609 16.4548 23.7625 16.9333 23.9707C17.4231 24.1814 17.9509 24.2893 18.4841 24.2879C18.7669 24.2887 19.0489 24.2586 19.3251 24.198C19.6254 24.1348 19.9152 24.0294 20.186 23.8851L25.5259 21.0367C26.4225 20.566 27.3779 20.2171 28.3669 19.9992C29.2862 19.8024 30.2236 19.7029 31.1638 19.7023C32.9591 19.7023 34.7274 20.0637 36.3181 20.7558C37.9087 21.448 39.2747 22.4508 40.2985 23.6777C41.5446 25.1297 42.2149 26.8695 42.2153 28.6543C42.2165 29.1617 42.1626 29.6683 42.054 30.1676C41.8161 31.268 41.3052 32.3148 40.5544 33.2418C39.8032 34.1683 38.8286 34.9547 37.6919 35.5508L23.7212 42.9687C22.8231 43.4409 21.8661 43.7912 20.8755 44.0105H20.8751Z" fill="white"/>
</svg>
