<svg width="516" height="513" viewBox="0 0 516 513" fill="none" xmlns="http://www.w3.org/2000/svg">
<path d="M102.489 296.65C102.419 296.379 102.456 296.12 102.6 295.876C102.744 295.631 102.951 295.472 103.222 295.401L122.536 290.287L122.79 291.275C122.859 291.547 122.822 291.805 122.678 292.05C122.53 292.275 122.32 292.424 122.049 292.495L102.735 297.609L102.489 296.65Z" fill="#181818"/>
<path d="M114.826 229.047C115.562 229.124 116.241 229.336 116.862 229.683C117.486 230.011 118.028 230.43 118.488 230.941C118.928 231.449 119.278 232.039 119.537 232.71C119.775 233.379 119.88 234.073 119.85 234.794L117.806 251.137L116.911 251.042C116.633 251.013 116.415 250.899 116.258 250.702C116.084 250.483 116.015 250.234 116.049 249.956L117.93 234.923C117.969 234.445 117.917 233.977 117.773 233.519C117.629 233.062 117.407 232.656 117.109 232.303C116.793 231.928 116.427 231.628 116.012 231.404C115.58 231.157 115.105 231.006 114.588 230.952C114.07 230.897 113.571 230.945 113.088 231.095C112.586 231.244 112.145 231.468 111.765 231.77C111.384 232.072 111.065 232.45 110.806 232.906C110.55 233.341 110.39 233.817 110.326 234.333C110.306 234.492 110.292 234.601 110.285 234.66C110.277 234.72 110.26 234.859 110.233 235.077C110.208 235.276 110.164 235.623 110.102 236.119C110.02 236.613 109.913 237.386 109.782 238.438C109.653 239.47 109.48 240.849 109.264 242.576C109.048 244.302 108.774 246.495 108.441 249.154C108.407 249.432 108.277 249.66 108.054 249.837C107.833 249.995 107.583 250.059 107.304 250.03L106.439 249.939C106.754 247.418 107.015 245.334 107.221 243.687C107.429 242.02 107.599 240.661 107.731 239.609C107.863 238.557 107.961 237.773 108.025 237.257C108.092 236.722 108.141 236.335 108.17 236.096C108.203 235.838 108.223 235.68 108.23 235.62C108.22 235.539 108.221 235.448 108.234 235.349C108.298 234.833 108.26 234.336 108.118 233.859C107.978 233.362 107.761 232.927 107.465 232.554C107.149 232.178 106.775 231.868 106.342 231.621C105.91 231.374 105.435 231.224 104.918 231.169C104.4 231.115 103.901 231.163 103.418 231.313C102.916 231.461 102.475 231.686 102.095 231.988C101.714 232.289 101.395 232.668 101.136 233.123C100.88 233.559 100.72 234.034 100.656 234.55L98.954 248.154C98.9193 248.432 98.79 248.66 98.5663 248.837C98.3451 248.995 98.0952 249.059 97.8167 249.03L96.9217 248.935C96.9292 248.876 96.9776 248.489 97.0669 247.775C97.1588 247.04 97.2705 246.147 97.402 245.095C97.5361 244.024 97.6788 242.883 97.8302 241.672C97.9842 240.442 98.1269 239.301 98.2585 238.249C98.3925 237.177 98.5042 236.284 98.5936 235.57C98.6854 234.835 98.7363 234.429 98.7462 234.349C98.8431 233.575 99.0841 232.857 99.4693 232.193C99.8545 231.53 100.338 230.968 100.92 230.507C101.501 230.045 102.159 229.702 102.892 229.478C103.626 229.254 104.38 229.182 105.156 229.264C106.469 229.402 107.6 229.944 108.55 230.888L109.277 231.598L109.974 230.858C110.601 230.2 111.347 229.715 112.212 229.404C113.059 229.072 113.931 228.952 114.826 229.047Z" fill="#181818"/>
<path d="M128.144 184.891C129.649 184.584 130.924 184.328 131.967 184.121C132.992 183.905 133.872 183.727 134.606 183.587C135.323 183.438 135.93 183.322 136.429 183.241C136.909 183.15 137.349 183.072 137.748 183.007C138.156 182.924 138.564 182.841 138.972 182.758C139.38 182.676 139.866 182.576 140.428 182.46L139.602 183.991C139.479 184.22 139.316 184.417 139.113 184.583C139.058 184.6 139.012 184.622 138.976 184.648C138.948 184.656 138.912 184.66 138.867 184.659C138.84 184.668 138.835 184.677 138.853 184.686C138.88 184.677 138.803 184.694 138.621 184.736C138.422 184.768 138.077 184.839 137.587 184.947C137.079 185.046 136.299 185.208 135.247 185.432C134.204 185.639 132.816 185.916 131.084 186.264C129.351 186.611 127.17 187.054 124.539 187.593L126.917 183.184C127.183 182.691 127.336 182.196 127.377 181.7C127.409 181.177 127.355 180.689 127.213 180.234C127.072 179.78 126.845 179.36 126.53 178.974C126.216 178.588 125.836 178.281 125.391 178.053C124.946 177.825 124.481 177.698 123.994 177.674C123.49 177.64 123.006 177.695 122.542 177.839C122.06 177.974 121.616 178.207 121.21 178.538C120.814 178.852 120.483 179.255 120.217 179.748C120.207 179.765 119.98 180.166 119.535 180.949L114.137 190.956C113.947 191.308 113.657 191.552 113.265 191.688C112.856 191.815 112.464 191.783 112.09 191.591L111.743 191.414L118.437 179.004C118.809 178.273 119.294 177.668 119.893 177.189C120.484 176.683 121.135 176.32 121.844 176.099C122.546 175.852 123.284 175.748 124.058 175.785C124.833 175.823 125.577 176.024 126.288 176.389C127 176.754 127.592 177.237 128.063 177.838C128.534 178.44 128.872 179.096 129.079 179.809C129.277 180.495 129.338 181.223 129.263 181.993C129.18 182.737 128.935 183.465 128.528 184.178L128.144 184.891Z" fill="#181818"/>
<path d="M175.942 145.178C175.654 145.426 175.337 145.475 174.991 145.324L155.468 137.517C155.466 137.545 155.529 137.874 155.657 138.503C155.8 139.118 155.972 139.934 156.174 140.948C156.377 141.934 156.613 143.064 156.882 144.337C157.138 145.595 157.406 146.882 157.687 148.197C157.967 149.513 158.242 150.808 158.511 152.08C158.767 153.338 158.997 154.46 159.2 155.447C159.403 156.433 159.569 157.241 159.697 157.87C159.827 158.471 159.892 158.771 159.892 158.771C159.926 158.9 159.89 159.011 159.784 159.102L158.329 160.355C158.331 160.327 158.261 159.991 158.12 159.347C157.979 158.703 157.795 157.859 157.567 156.815C157.339 155.77 157.085 154.59 156.804 153.274C156.511 151.943 156.218 150.598 155.926 149.24C155.636 147.853 155.351 146.501 155.071 145.185C154.777 143.854 154.515 142.681 154.285 141.664C154.058 140.62 153.88 139.783 153.752 139.154C153.611 138.51 153.54 138.188 153.54 138.188C153.436 137.829 153.439 137.484 153.547 137.153C153.657 136.794 153.856 136.491 154.144 136.242L155.212 135.322C155.698 135.51 156.44 135.808 157.439 136.215C158.453 136.608 159.611 137.075 160.914 137.615C162.219 138.128 163.614 138.681 165.098 139.276C166.598 139.858 168.083 140.453 169.552 141.062C171.024 141.642 172.425 142.203 173.756 142.745C175.09 143.259 176.242 143.705 177.215 144.081L175.942 145.178Z" fill="#181818"/>
<path d="M212.853 102.529C213.116 102.434 213.376 102.446 213.631 102.565C213.887 102.685 214.062 102.877 214.157 103.14L220.92 121.941L219.961 122.29C219.698 122.386 219.439 122.374 219.183 122.254C218.946 122.127 218.781 121.932 218.686 121.669L215.335 112.353L200.451 117.774C200.188 117.87 199.932 117.868 199.683 117.767C199.447 117.64 199.281 117.445 199.186 117.182L198.881 116.335L214.695 110.575L211.923 102.868L212.853 102.529Z" fill="#181818"/>
<path d="M264.961 96.2017C265.24 96.2055 265.477 96.3087 265.671 96.5114C265.865 96.714 265.957 96.9553 265.949 97.2351L265.33 117.206L264.31 117.192C264.03 117.188 263.793 117.085 263.599 116.882C263.425 116.68 263.343 116.438 263.351 116.159L263.971 96.1881L264.961 96.2017Z" fill="#181818"/>
<path d="M311.336 103.117C311.54 103.198 311.706 103.319 311.834 103.478C311.97 103.618 312.053 103.781 312.083 103.965L314.747 125.647L332.373 112.126C332.528 112.016 332.709 111.949 332.915 111.924C333.122 111.899 333.327 111.927 333.531 112.009L334.561 112.422L326.351 131.62L325.766 131.386C325.451 131.26 325.208 131.065 325.037 130.803C324.874 130.522 324.847 130.253 324.957 129.996L331.188 115.367L315.988 126.79C315.783 126.966 315.532 127.07 315.235 127.102C314.947 127.116 314.654 127.063 314.357 126.944L314.051 126.822C313.42 126.569 313.072 126.16 313.008 125.596L310.552 107.1L304.321 121.728C304.212 121.986 303.997 122.158 303.677 122.246C303.365 122.314 303.052 122.286 302.736 122.159L302.151 121.925L310.306 102.704L311.336 103.117Z" fill="#181818"/>
<path d="M405.256 198.893C404.55 199.225 403.817 199.405 403.056 199.431C402.295 199.458 401.568 199.346 400.876 199.097C400.184 198.848 399.554 198.471 398.984 197.965C398.415 197.459 397.964 196.854 397.632 196.148L392.409 185.045L384.699 188.672C384.446 188.791 384.186 188.803 383.92 188.707C383.654 188.611 383.461 188.436 383.342 188.183L382.921 187.287L393.263 182.422C394.319 184.666 395.196 186.53 395.894 188.014C396.592 189.498 397.158 190.701 397.593 191.624C398.027 192.547 398.355 193.244 398.576 193.714C398.797 194.185 398.955 194.52 399.048 194.719C399.151 194.936 399.214 195.072 399.24 195.126C399.292 195.19 399.34 195.267 399.382 195.358C399.603 195.828 399.903 196.229 400.279 196.56C400.665 196.909 401.083 197.165 401.536 197.328C402.006 197.483 402.492 197.552 402.994 197.538C403.495 197.523 403.981 197.405 404.452 197.183C404.922 196.962 405.323 196.663 405.654 196.286C405.994 195.927 406.241 195.513 406.395 195.042C406.558 194.59 406.628 194.104 406.604 193.584C406.608 193.075 406.49 192.566 406.252 192.06C406.243 192.041 406.056 191.621 405.691 190.798L400.851 180.51C400.681 180.148 400.659 179.771 400.784 179.381C400.928 178.982 401.19 178.693 401.57 178.514L401.923 178.348L407.925 191.106C408.292 191.84 408.489 192.587 408.516 193.348C408.569 194.119 408.475 194.859 408.234 195.569C407.994 196.279 407.612 196.923 407.088 197.501C406.591 198.089 405.98 198.553 405.256 198.893Z" fill="#181818"/>
<path d="M410.54 254.721C409.105 254.832 407.731 254.658 406.42 254.198C405.11 253.758 403.946 253.096 402.929 252.212C401.933 251.347 401.115 250.297 400.477 249.063C399.858 247.827 399.504 246.49 399.413 245.053C399.323 243.616 399.507 242.238 399.965 240.919C400.443 239.598 401.121 238.422 401.998 237.391C402.896 236.379 403.965 235.544 405.206 234.886C406.449 234.248 407.788 233.873 409.223 233.762C410.659 233.651 412.032 233.815 413.342 234.255C414.653 234.715 415.807 235.378 416.803 236.243C417.82 237.127 418.638 238.187 419.257 239.423C419.896 240.657 420.26 241.993 420.35 243.43C420.441 244.867 420.247 246.246 419.769 247.567C419.311 248.886 418.633 250.052 417.734 251.064C416.857 252.095 415.798 252.929 414.555 253.567C413.314 254.225 411.976 254.61 410.54 254.721ZM409.342 235.648C408.165 235.74 407.063 236.046 406.033 236.567C405.025 237.106 404.157 237.796 403.428 238.634C402.699 239.473 402.138 240.429 401.745 241.503C401.373 242.595 401.224 243.729 401.298 244.907C401.372 246.085 401.661 247.176 402.165 248.18C402.69 249.202 403.365 250.072 404.192 250.79C405.019 251.508 405.964 252.047 407.029 252.406C408.114 252.783 409.245 252.926 410.422 252.835C411.598 252.743 412.691 252.428 413.699 251.889C414.728 251.367 415.607 250.688 416.336 249.849C417.064 249.01 417.615 248.045 417.987 246.953C418.38 245.879 418.54 244.754 418.466 243.576C418.392 242.398 418.093 241.298 417.567 240.276C417.064 239.272 416.398 238.411 415.572 237.693C414.745 236.975 413.789 236.427 412.703 236.05C411.639 235.691 410.518 235.557 409.342 235.648Z" fill="#181818"/>
<path d="M401.926 301.801C400.501 302.379 399.295 302.866 398.308 303.261C397.339 303.662 396.507 303.999 395.81 304.272C395.133 304.55 394.557 304.775 394.082 304.947C393.626 305.125 393.208 305.282 392.828 305.42C392.442 305.576 392.056 305.733 391.67 305.889C391.283 306.046 390.825 306.233 390.293 306.45L390.824 304.793C390.903 304.546 391.028 304.322 391.197 304.122C391.247 304.095 391.288 304.065 391.32 304.033C391.345 304.02 391.38 304.009 391.424 304.002C391.45 303.988 391.453 303.979 391.434 303.973C391.408 303.986 391.481 303.956 391.652 303.881C391.842 303.813 392.168 303.68 392.63 303.483C393.111 303.293 393.848 302.99 394.842 302.576C395.83 302.181 397.143 301.653 398.783 300.993C400.423 300.333 402.486 299.496 404.974 298.483L403.444 303.253C403.273 303.787 403.213 304.301 403.265 304.796C403.329 305.315 403.472 305.786 403.694 306.206C403.916 306.627 404.217 306.998 404.597 307.319C404.977 307.64 405.407 307.872 405.886 308.015C406.365 308.157 406.847 308.196 407.329 308.13C407.831 308.071 408.297 307.928 408.727 307.701C409.176 307.479 409.57 307.169 409.908 306.769C410.24 306.388 410.492 305.93 410.663 305.397C410.669 305.378 410.819 304.943 411.113 304.092L414.584 293.265C414.707 292.884 414.948 292.59 415.308 292.384C415.687 292.184 416.078 292.144 416.48 292.263L416.854 292.374L412.549 305.801C412.318 306.587 411.952 307.271 411.45 307.852C410.962 308.458 410.389 308.935 409.732 309.282C409.088 309.654 408.381 309.892 407.613 309.998C406.844 310.103 406.076 310.042 405.309 309.814C404.542 309.587 403.872 309.221 403.299 308.717C402.725 308.213 402.272 307.63 401.938 306.967C401.618 306.33 401.424 305.626 401.356 304.855C401.301 304.108 401.409 303.348 401.678 302.573L401.926 301.801Z" fill="#181818"/>
<path d="M380.185 360.487C380.01 360.705 379.786 360.823 379.516 360.841C379.232 360.874 378.98 360.804 378.759 360.633L378.072 360.099L389.264 346.193C389.439 345.975 389.661 345.843 389.928 345.798C390.199 345.781 390.445 345.858 390.666 346.029L391.377 346.581L380.185 360.487ZM380.377 349.963C380.201 350.182 379.978 350.299 379.707 350.317C379.44 350.362 379.195 350.299 378.974 350.127L368.265 341.81L368.885 341.039C369.061 340.82 369.283 340.689 369.55 340.643C369.821 340.626 370.067 340.703 370.288 340.875L380.997 349.192L380.377 349.963Z" fill="#181818"/>
<path d="M348.079 388.13C348.221 388.371 348.266 388.623 348.212 388.886C348.141 389.159 347.985 389.367 347.744 389.508L331.749 398.883L331.291 398.109C331.148 397.868 331.112 397.61 331.183 397.337C331.246 397.091 331.399 396.897 331.641 396.756L347.636 387.381L348.079 388.13ZM343.726 380.771L328.533 389.675L328.09 388.927C327.948 388.686 327.912 388.428 327.982 388.155C328.036 387.892 328.183 387.69 328.425 387.548L341.03 380.16L336.28 372.13C336.208 372.009 336.233 371.914 336.354 371.843L337.907 370.933L343.726 380.771Z" fill="#181818"/>
<path d="M272.123 404.629C271.899 403.207 271.962 401.817 272.315 400.459C272.647 399.104 273.212 397.872 274.008 396.763C274.788 395.677 275.766 394.751 276.94 393.983C278.118 393.236 279.416 392.741 280.836 392.5C282.256 392.259 283.639 392.298 284.985 392.617C286.334 392.956 287.556 393.51 288.649 394.277C289.725 395.068 290.64 396.049 291.392 397.22C292.124 398.394 292.602 399.692 292.827 401.114C293.052 402.536 292.998 403.925 292.666 405.28C292.313 406.638 291.747 407.86 290.967 408.945C290.171 410.054 289.183 410.983 288.006 411.73C286.831 412.498 285.534 413.002 284.115 413.243C282.695 413.484 281.31 413.435 279.961 413.096C278.615 412.777 277.403 412.222 276.327 411.431C275.233 410.663 274.321 409.693 273.589 408.519C272.837 407.348 272.348 406.052 272.123 404.629ZM290.964 401.43C290.78 400.265 290.388 399.195 289.789 398.222C289.173 397.272 288.419 396.477 287.529 395.837C286.638 395.197 285.644 394.737 284.547 394.457C283.433 394.2 282.294 394.17 281.131 394.367C279.968 394.565 278.908 394.968 277.951 395.577C276.978 396.208 276.168 396.975 275.52 397.876C274.873 398.777 274.414 399.778 274.142 400.879C273.854 402.003 273.803 403.147 273.987 404.313C274.171 405.478 274.571 406.536 275.187 407.487C275.786 408.46 276.531 409.267 277.422 409.906C278.313 410.546 279.315 410.995 280.429 411.252C281.526 411.532 282.656 411.574 283.819 411.376C284.983 411.179 286.051 410.764 287.024 410.132C287.981 409.523 288.783 408.769 289.43 407.868C290.077 406.967 290.545 405.954 290.833 404.83C291.104 403.729 291.148 402.596 290.964 401.43Z" fill="#181818"/>
<path d="M229.928 413.673C229.654 413.618 229.44 413.474 229.287 413.24C229.134 413.005 229.088 412.751 229.148 412.478L231.194 403.221C231.453 402.05 231.481 400.903 231.279 399.782C231.071 398.681 230.679 397.675 230.102 396.765C229.525 395.855 228.784 395.085 227.879 394.456C226.954 393.823 225.903 393.39 224.726 393.155L220.46 392.305C220.185 392.251 219.981 392.108 219.848 391.878C219.691 391.663 219.642 391.419 219.703 391.145L219.897 390.266C221.447 390.575 222.604 390.806 223.369 390.958C224.114 391.107 224.644 391.212 224.957 391.275C225.271 391.337 225.448 391.372 225.487 391.38C225.522 391.408 225.608 391.435 225.745 391.462C227.082 391.81 228.275 392.384 229.327 393.185C230.379 393.986 231.245 394.933 231.924 396.027C232.584 397.117 233.036 398.318 233.278 399.63C233.501 400.939 233.463 402.267 233.165 403.614L230.899 413.867L229.928 413.673Z" fill="#181818"/>
<path d="M169.003 390.433C168.767 390.283 168.62 390.071 168.562 389.797C168.503 389.523 168.552 389.269 168.707 389.036L179.762 372.393L180.623 372.941C180.859 373.091 181.006 373.303 181.064 373.577C181.105 373.841 181.048 374.089 180.893 374.322L169.838 390.965L169.003 390.433Z" fill="#181818"/>
<path d="M129.851 335.506C131.022 334.669 132.293 334.105 133.664 333.813C135.023 333.506 136.375 333.461 137.72 333.679C139.037 333.893 140.3 334.355 141.508 335.064C142.7 335.786 143.719 336.729 144.566 337.894C145.412 339.059 145.992 340.316 146.306 341.665C146.603 343.026 146.651 344.368 146.451 345.692C146.222 347.01 145.752 348.268 145.04 349.466C144.316 350.647 143.369 351.656 142.197 352.494C141.026 353.331 139.761 353.904 138.402 354.211C137.031 354.503 135.687 354.541 134.37 354.328C133.025 354.11 131.756 353.64 130.564 352.918C129.356 352.209 128.329 351.271 127.482 350.106C126.636 348.942 126.064 347.679 125.767 346.318C125.454 344.968 125.411 343.634 125.639 342.315C125.84 340.992 126.302 339.74 127.026 338.559C127.738 337.361 128.679 336.344 129.851 335.506ZM141.086 350.965C142.046 350.279 142.828 349.449 143.431 348.477C144.007 347.5 144.383 346.469 144.559 345.385C144.735 344.3 144.704 343.203 144.467 342.095C144.202 340.981 143.722 339.947 143.028 338.993C142.335 338.038 141.503 337.268 140.534 336.683C139.536 336.093 138.491 335.709 137.398 335.532C136.305 335.355 135.206 335.39 134.101 335.639C132.968 335.884 131.922 336.349 130.962 337.035C130.002 337.722 129.234 338.553 128.659 339.53C128.055 340.502 127.665 341.531 127.489 342.615C127.313 343.7 127.358 344.799 127.623 345.912C127.86 347.021 128.326 348.053 129.02 349.007C129.713 349.962 130.559 350.734 131.556 351.324C132.526 351.909 133.557 352.291 134.65 352.468C135.743 352.645 136.856 352.612 137.989 352.368C139.094 352.119 140.126 351.651 141.086 350.965Z" fill="#181818"/>
</svg>
