<svg width="515" height="512" viewBox="0 0 515 512" fill="none" xmlns="http://www.w3.org/2000/svg">
<path d="M101.793 295.776C101.723 295.505 101.76 295.247 101.904 295.002C102.048 294.757 102.255 294.599 102.525 294.527L121.84 289.414L122.093 290.402C122.163 290.673 122.126 290.931 121.982 291.176C121.833 291.402 121.624 291.55 121.353 291.622L102.038 296.735L101.793 295.776Z" fill="#E5E7EB"/>
<path d="M114.13 228.173C114.865 228.251 115.544 228.463 116.166 228.81C116.79 229.137 117.332 229.556 117.792 230.067C118.232 230.576 118.582 231.166 118.84 231.837C119.079 232.505 119.184 233.2 119.154 233.921L117.11 250.263L116.215 250.169C115.936 250.139 115.719 250.026 115.562 249.829C115.388 249.609 115.318 249.361 115.353 249.083L117.233 234.05C117.273 233.571 117.221 233.103 117.076 232.646C116.932 232.188 116.711 231.783 116.412 231.43C116.097 231.055 115.731 230.755 115.316 230.53C114.883 230.283 114.408 230.133 113.891 230.078C113.374 230.024 112.874 230.072 112.392 230.222C111.89 230.37 111.449 230.595 111.068 230.897C110.688 231.199 110.369 231.577 110.11 232.032C109.854 232.468 109.694 232.944 109.629 233.46C109.609 233.618 109.596 233.727 109.588 233.787C109.581 233.847 109.564 233.985 109.536 234.204C109.511 234.402 109.468 234.75 109.406 235.246C109.324 235.74 109.217 236.513 109.086 237.564C108.957 238.596 108.784 239.976 108.568 241.702C108.352 243.429 108.078 245.622 107.745 248.281C107.71 248.559 107.581 248.786 107.357 248.964C107.136 249.122 106.886 249.186 106.608 249.156L105.743 249.065C106.058 246.545 106.319 244.461 106.525 242.814C106.733 241.147 106.903 239.787 107.035 238.736C107.166 237.684 107.264 236.9 107.329 236.384C107.396 235.848 107.444 235.461 107.474 235.223C107.506 234.965 107.526 234.806 107.534 234.747C107.524 234.665 107.525 234.575 107.537 234.476C107.602 233.96 107.563 233.463 107.421 232.986C107.282 232.488 107.065 232.053 106.769 231.68C106.453 231.305 106.079 230.994 105.646 230.748C105.213 230.501 104.738 230.35 104.221 230.296C103.704 230.241 103.204 230.289 102.722 230.439C102.22 230.588 101.779 230.812 101.398 231.114C101.018 231.416 100.699 231.794 100.44 232.25C100.184 232.685 100.024 233.161 99.9593 233.677L98.2577 247.281C98.2229 247.559 98.0937 247.786 97.87 247.964C97.6487 248.122 97.3989 248.186 97.1204 248.156L96.2254 248.062C96.2328 248.003 96.2812 247.616 96.3706 246.901C96.4625 246.167 96.5742 245.274 96.7057 244.222C96.8398 243.15 96.9825 242.009 97.1339 240.799C97.2878 239.568 97.4306 238.427 97.5621 237.375C97.6962 236.304 97.8079 235.411 97.8973 234.696C97.9891 233.962 98.04 233.555 98.0499 233.476C98.1467 232.702 98.3878 231.983 98.773 231.32C99.1582 230.657 99.6417 230.095 100.223 229.633C100.805 229.172 101.463 228.829 102.196 228.604C102.929 228.38 103.684 228.309 104.46 228.391C105.772 228.529 106.904 229.07 107.854 230.015L108.581 230.725L109.278 229.984C109.904 229.326 110.65 228.842 111.515 228.531C112.363 228.198 113.234 228.079 114.13 228.173Z" fill="#E5E7EB"/>
<path d="M127.447 184.018C128.953 183.711 130.227 183.454 131.27 183.248C132.296 183.032 133.175 182.854 133.91 182.714C134.627 182.564 135.234 182.449 135.733 182.367C136.213 182.277 136.653 182.199 137.051 182.133C137.46 182.051 137.868 181.968 138.276 181.885C138.684 181.802 139.169 181.703 139.732 181.587L138.906 183.118C138.782 183.347 138.619 183.544 138.416 183.71C138.362 183.727 138.316 183.748 138.279 183.774C138.252 183.783 138.216 183.787 138.171 183.786C138.143 183.794 138.139 183.803 138.156 183.812C138.184 183.804 138.107 183.82 137.925 183.862C137.726 183.895 137.381 183.965 136.891 184.074C136.383 184.173 135.603 184.334 134.55 184.559C133.507 184.765 132.12 185.043 130.387 185.39C128.655 185.738 126.473 186.181 123.843 186.72L126.221 182.31C126.487 181.817 126.64 181.323 126.681 180.827C126.713 180.304 126.658 179.815 126.517 179.361C126.376 178.907 126.148 178.486 125.834 178.101C125.519 177.715 125.14 177.408 124.695 177.179C124.25 176.951 123.784 176.825 123.298 176.8C122.794 176.766 122.309 176.821 121.845 176.966C121.364 177.1 120.92 177.334 120.514 177.665C120.118 177.978 119.787 178.382 119.521 178.874C119.511 178.892 119.284 179.292 118.839 180.075L113.441 190.082C113.251 190.434 112.96 190.679 112.569 190.815C112.159 190.942 111.768 190.91 111.394 190.718L111.047 190.54L117.741 178.13C118.113 177.4 118.598 176.795 119.197 176.315C119.788 175.809 120.438 175.446 121.148 175.226C121.849 174.979 122.587 174.874 123.362 174.912C124.137 174.95 124.88 175.151 125.592 175.516C126.304 175.881 126.896 176.364 127.366 176.965C127.837 177.566 128.176 178.223 128.382 178.935C128.58 179.621 128.642 180.349 128.567 181.12C128.484 181.864 128.239 182.592 127.832 183.305L127.447 184.018Z" fill="#E5E7EB"/>
<path d="M175.246 144.305C174.958 144.553 174.641 144.601 174.295 144.451L154.771 136.644C154.77 136.672 154.833 137 154.961 137.629C155.104 138.245 155.276 139.06 155.477 140.075C155.681 141.061 155.917 142.191 156.186 143.464C156.442 144.721 156.71 146.008 156.991 147.324C157.271 148.64 157.546 149.934 157.815 151.207C158.071 152.465 158.301 153.587 158.504 154.573C158.707 155.56 158.873 156.368 159.001 156.996C159.131 157.597 159.196 157.898 159.196 157.898C159.229 158.027 159.193 158.137 159.087 158.229L157.633 159.482C157.635 159.454 157.565 159.118 157.424 158.474C157.283 157.83 157.098 156.986 156.87 155.941C156.643 154.897 156.389 153.717 156.108 152.401C155.814 151.07 155.522 149.725 155.23 148.366C154.94 146.979 154.655 145.628 154.374 144.312C154.081 142.981 153.819 141.807 153.589 140.791C153.361 139.746 153.183 138.91 153.055 138.281C152.914 137.637 152.844 137.315 152.844 137.315C152.74 136.956 152.742 136.61 152.85 136.28C152.961 135.921 153.16 135.617 153.447 135.369L154.516 134.449C155.002 134.637 155.744 134.935 156.743 135.341C157.756 135.735 158.915 136.202 160.218 136.742C161.523 137.254 162.917 137.808 164.402 138.403C165.902 138.985 167.386 139.58 168.856 140.188C170.327 140.768 171.729 141.329 173.06 141.872C174.393 142.386 175.546 142.831 176.518 143.208L175.246 144.305Z" fill="#E5E7EB"/>
<path d="M212.157 101.656C212.42 101.56 212.679 101.572 212.935 101.692C213.191 101.812 213.366 102.003 213.461 102.267L220.224 121.067L219.265 121.416C219.002 121.512 218.743 121.5 218.487 121.381C218.25 121.254 218.084 121.059 217.99 120.795L214.639 111.48L199.755 116.901C199.492 116.997 199.236 116.994 198.987 116.893C198.75 116.767 198.585 116.572 198.49 116.308L198.185 115.461L213.999 109.701L211.227 101.995L212.157 101.656Z" fill="#E5E7EB"/>
<path d="M264.264 95.3283C264.544 95.3321 264.781 95.4353 264.975 95.638C265.169 95.8406 265.261 96.0819 265.253 96.3617L264.633 116.332L263.613 116.318C263.333 116.314 263.097 116.211 262.903 116.008C262.729 115.806 262.646 115.565 262.655 115.285L263.274 95.3147L264.264 95.3283Z" fill="#E5E7EB"/>
<path d="M310.64 102.243C310.844 102.325 311.01 102.446 311.138 102.604C311.274 102.745 311.357 102.907 311.387 103.092L314.051 124.773L331.676 111.253C331.832 111.143 332.013 111.075 332.219 111.05C332.425 111.025 332.631 111.054 332.835 111.135L333.865 111.548L325.655 130.747L325.07 130.513C324.755 130.386 324.511 130.192 324.34 129.93C324.177 129.649 324.151 129.38 324.261 129.122L330.491 114.494L315.292 125.917C315.086 126.093 314.835 126.197 314.539 126.229C314.251 126.243 313.958 126.19 313.661 126.071L313.355 125.948C312.723 125.695 312.376 125.287 312.312 124.723L309.856 106.227L303.625 120.855C303.515 121.112 303.301 121.285 302.981 121.372C302.669 121.441 302.355 121.412 302.04 121.286L301.455 121.052L309.609 101.83L310.64 102.243Z" fill="#E5E7EB"/>
<path d="M404.56 198.02C403.854 198.352 403.121 198.531 402.359 198.558C401.598 198.584 400.872 198.473 400.18 198.224C399.488 197.975 398.857 197.597 398.288 197.092C397.719 196.586 397.268 195.98 396.936 195.274L391.713 184.172L384.003 187.799C383.75 187.918 383.49 187.929 383.224 187.834C382.958 187.738 382.765 187.563 382.646 187.31L382.224 186.414L392.567 181.548C393.623 183.792 394.5 185.656 395.198 187.14C395.896 188.624 396.462 189.828 396.896 190.751C397.331 191.674 397.658 192.371 397.88 192.841C398.101 193.312 398.259 193.646 398.352 193.845C398.454 194.063 398.518 194.198 398.544 194.253C398.596 194.317 398.643 194.394 398.686 194.484C398.907 194.955 399.206 195.356 399.583 195.687C399.968 196.036 400.387 196.292 400.84 196.455C401.31 196.609 401.796 196.679 402.297 196.664C402.799 196.649 403.285 196.531 403.755 196.31C404.226 196.089 404.627 195.789 404.958 195.413C405.297 195.054 405.544 194.639 405.699 194.169C405.862 193.717 405.931 193.231 405.908 192.711C405.911 192.201 405.794 191.693 405.555 191.186C405.547 191.168 405.36 190.748 404.995 189.925L400.155 179.636C399.985 179.274 399.962 178.898 400.088 178.507C400.232 178.108 400.494 177.819 400.874 177.64L401.227 177.474L407.229 190.233C407.596 190.967 407.793 191.714 407.819 192.475C407.873 193.246 407.779 193.986 407.538 194.696C407.297 195.406 406.915 196.05 406.391 196.628C405.894 197.215 405.284 197.68 404.56 198.02Z" fill="#E5E7EB"/>
<path d="M409.844 253.847C408.408 253.959 407.035 253.784 405.724 253.325C404.414 252.885 403.25 252.223 402.233 251.339C401.236 250.473 400.419 249.423 399.78 248.189C399.162 246.953 398.807 245.617 398.717 244.18C398.627 242.743 398.811 241.364 399.269 240.045C399.747 238.724 400.424 237.549 401.301 236.518C402.2 235.506 403.269 234.67 404.51 234.013C405.752 233.375 407.091 233 408.527 232.889C409.963 232.777 411.336 232.942 412.646 233.382C413.957 233.842 415.111 234.504 416.107 235.37C417.124 236.254 417.942 237.314 418.561 238.549C419.199 239.784 419.564 241.119 419.654 242.556C419.745 243.994 419.551 245.373 419.073 246.693C418.614 248.013 417.936 249.178 417.038 250.191C416.161 251.222 415.102 252.056 413.859 252.694C412.618 253.352 411.28 253.736 409.844 253.847ZM408.646 234.775C407.469 234.866 406.366 235.172 405.337 235.694C404.329 236.233 403.461 236.922 402.732 237.761C402.003 238.6 401.442 239.556 401.049 240.629C400.677 241.721 400.527 242.856 400.601 244.034C400.675 245.211 400.964 246.302 401.468 247.306C401.993 248.328 402.669 249.199 403.496 249.917C404.322 250.635 405.268 251.174 406.332 251.532C407.418 251.909 408.549 252.052 409.726 251.961C410.902 251.87 411.994 251.555 413.002 251.015C414.032 250.494 414.911 249.814 415.639 248.975C416.368 248.137 416.919 247.171 417.291 246.079C417.684 245.006 417.844 243.88 417.77 242.703C417.696 241.525 417.396 240.425 416.871 239.403C416.367 238.399 415.702 237.538 414.876 236.819C414.049 236.101 413.093 235.554 412.007 235.176C410.943 234.818 409.822 234.684 408.646 234.775Z" fill="#E5E7EB"/>
<path d="M401.229 300.928C399.805 301.506 398.599 301.993 397.611 302.388C396.643 302.788 395.811 303.125 395.114 303.398C394.437 303.677 393.861 303.902 393.386 304.074C392.93 304.251 392.512 304.409 392.132 304.546C391.746 304.703 391.359 304.859 390.973 305.016C390.587 305.172 390.128 305.359 389.597 305.577L390.128 303.92C390.207 303.672 390.331 303.448 390.501 303.248C390.551 303.222 390.592 303.192 390.624 303.16C390.649 303.146 390.684 303.136 390.728 303.128C390.753 303.115 390.756 303.105 390.737 303.1C390.712 303.113 390.785 303.082 390.956 303.008C391.146 302.939 391.472 302.807 391.934 302.61C392.415 302.419 393.152 302.117 394.146 301.703C395.134 301.308 396.447 300.78 398.087 300.12C399.726 299.459 401.79 298.623 404.278 297.609L402.748 302.38C402.577 302.913 402.517 303.427 402.568 303.922C402.633 304.442 402.776 304.912 402.998 305.333C403.22 305.753 403.521 306.124 403.901 306.446C404.281 306.767 404.711 306.999 405.19 307.141C405.669 307.284 406.15 307.322 406.633 307.257C407.135 307.198 407.601 307.054 408.031 306.827C408.48 306.606 408.873 306.295 409.212 305.895C409.544 305.514 409.795 305.057 409.966 304.524C409.972 304.505 410.123 304.069 410.416 303.218L413.888 292.391C414.01 292.01 414.251 291.717 414.611 291.511C414.991 291.311 415.382 291.27 415.784 291.39L416.158 291.501L411.853 304.927C411.622 305.714 411.255 306.398 410.754 306.979C410.266 307.585 409.693 308.061 409.036 308.409C408.391 308.78 407.685 309.019 406.916 309.125C406.148 309.23 405.38 309.169 404.613 308.941C403.846 308.713 403.176 308.347 402.602 307.843C402.029 307.339 401.576 306.756 401.242 306.094C400.922 305.457 400.727 304.752 400.66 303.981C400.605 303.235 400.712 302.474 400.982 301.699L401.229 300.928Z" fill="#E5E7EB"/>
<path d="M379.489 359.614C379.313 359.832 379.09 359.95 378.819 359.967C378.536 360 378.284 359.931 378.063 359.759L377.376 359.226L388.567 345.32C388.743 345.102 388.964 344.97 389.232 344.925C389.503 344.907 389.749 344.984 389.97 345.156L390.681 345.708L379.489 359.614ZM379.68 349.09C379.505 349.308 379.282 349.426 379.011 349.444C378.743 349.489 378.499 349.426 378.278 349.254L367.569 340.936L368.189 340.165C368.365 339.947 368.586 339.815 368.854 339.77C369.125 339.752 369.371 339.829 369.592 340.001L380.301 348.319L379.68 349.09Z" fill="#E5E7EB"/>
<path d="M347.382 387.256C347.525 387.497 347.569 387.749 347.516 388.013C347.445 388.286 347.289 388.493 347.048 388.635L331.052 398.01L330.594 397.235C330.452 396.994 330.416 396.737 330.487 396.464C330.55 396.218 330.703 396.024 330.944 395.882L346.939 386.507L347.382 387.256ZM343.03 379.897L327.837 388.802L327.394 388.053C327.251 387.812 327.215 387.555 327.286 387.282C327.34 387.019 327.487 386.816 327.729 386.675L340.333 379.287L335.583 371.257C335.512 371.136 335.537 371.04 335.658 370.97L337.211 370.059L343.03 379.897Z" fill="#E5E7EB"/>
<path d="M271.427 403.756C271.202 402.334 271.266 400.943 271.618 399.585C271.951 398.231 272.515 396.999 273.312 395.89C274.092 394.804 275.069 393.877 276.244 393.11C277.421 392.362 278.72 391.868 280.14 391.627C281.559 391.386 282.942 391.425 284.289 391.744C285.638 392.083 286.859 392.636 287.953 393.404C289.029 394.195 289.943 395.176 290.695 396.346C291.428 397.52 291.906 398.818 292.131 400.241C292.356 401.663 292.302 403.051 291.969 404.406C291.617 405.764 291.051 406.986 290.271 408.072C289.474 409.181 288.487 410.109 287.309 410.857C286.135 411.624 284.838 412.128 283.418 412.37C281.999 412.611 280.614 412.562 279.265 412.223C277.918 411.904 276.707 411.349 275.63 410.558C274.537 409.79 273.624 408.819 272.892 407.645C272.14 406.475 271.652 405.178 271.427 403.756ZM290.267 400.557C290.083 399.391 289.692 398.322 289.092 397.349C288.476 396.398 287.723 395.603 286.832 394.964C285.942 394.324 284.948 393.864 283.85 393.583C282.737 393.326 281.598 393.296 280.435 393.494C279.271 393.691 278.211 394.094 277.255 394.703C276.282 395.335 275.471 396.101 274.824 397.002C274.177 397.903 273.718 398.904 273.446 400.005C273.158 401.129 273.106 402.274 273.29 403.44C273.475 404.605 273.875 405.663 274.491 406.613C275.09 407.587 275.835 408.393 276.726 409.033C277.616 409.673 278.619 410.121 279.732 410.379C280.83 410.659 281.96 410.7 283.123 410.503C284.286 410.305 285.355 409.891 286.328 409.259C287.285 408.65 288.087 407.895 288.734 406.994C289.381 406.093 289.849 405.081 290.137 403.957C290.408 402.856 290.452 401.723 290.267 400.557Z" fill="#E5E7EB"/>
<path d="M229.232 412.8C228.957 412.745 228.744 412.6 228.591 412.366C228.438 412.132 228.391 411.878 228.452 411.604L230.498 402.348C230.757 401.176 230.785 400.03 230.582 398.909C230.375 397.807 229.983 396.802 229.406 395.891C228.829 394.981 228.088 394.212 227.183 393.583C226.258 392.95 225.207 392.516 224.03 392.282L219.764 391.432C219.489 391.377 219.285 391.235 219.152 391.004C218.994 390.789 218.946 390.545 219.006 390.272L219.201 389.393C220.75 389.702 221.908 389.932 222.672 390.085C223.418 390.233 223.947 390.339 224.261 390.401C224.575 390.464 224.752 390.499 224.791 390.507C224.826 390.534 224.912 390.561 225.049 390.589C226.385 390.937 227.579 391.511 228.631 392.312C229.683 393.113 230.548 394.06 231.228 395.153C231.888 396.243 232.339 397.444 232.582 398.757C232.805 400.065 232.767 401.393 232.469 402.741L230.203 412.993L229.232 412.8Z" fill="#E5E7EB"/>
<path d="M168.307 389.56C168.07 389.409 167.923 389.197 167.865 388.923C167.807 388.649 167.856 388.396 168.011 388.162L179.066 371.52L179.926 372.067C180.163 372.218 180.31 372.43 180.368 372.704C180.409 372.967 180.352 373.216 180.197 373.449L169.142 390.092L168.307 389.56Z" fill="#E5E7EB"/>
<path d="M129.155 334.633C130.326 333.796 131.597 333.231 132.968 332.94C134.326 332.632 135.678 332.588 137.024 332.806C138.341 333.02 139.604 333.481 140.812 334.191C142.004 334.912 143.023 335.855 143.87 337.02C144.716 338.185 145.296 339.442 145.609 340.792C145.906 342.153 145.955 343.495 145.754 344.818C145.526 346.137 145.056 347.395 144.344 348.592C143.62 349.774 142.672 350.783 141.501 351.62C140.329 352.458 139.064 353.03 137.706 353.338C136.335 353.629 134.991 353.668 133.674 353.454C132.328 353.236 131.06 352.766 129.868 352.045C128.66 351.335 127.633 350.398 126.786 349.233C125.939 348.068 125.368 346.805 125.071 345.444C124.757 344.095 124.715 342.761 124.943 341.442C125.144 340.119 125.606 338.866 126.329 337.685C127.041 336.488 127.983 335.47 129.155 334.633ZM140.39 350.091C141.35 349.405 142.131 348.576 142.735 347.604C143.311 346.627 143.687 345.596 143.862 344.511C144.038 343.427 144.008 342.33 143.771 341.221C143.505 340.108 143.026 339.074 142.332 338.119C141.638 337.165 140.807 336.395 139.837 335.81C138.84 335.22 137.795 334.836 136.702 334.659C135.608 334.481 134.51 334.517 133.405 334.766C132.272 335.01 131.226 335.476 130.266 336.162C129.306 336.848 128.538 337.68 127.962 338.657C127.359 339.629 126.969 340.657 126.793 341.742C126.617 342.827 126.662 343.926 126.927 345.039C127.164 346.148 127.63 347.179 128.323 348.134C129.017 349.088 129.863 349.861 130.86 350.451C131.83 351.036 132.861 351.417 133.954 351.595C135.047 351.772 136.16 351.739 137.293 351.494C138.397 351.245 139.43 350.778 140.39 350.091Z" fill="#E5E7EB"/>
</svg>
